<mxfile host="app.diagrams.net" agent="Mozilla/5.0 (Windows NT 10.0; Win64; x64; rv:136.0) Gecko/20100101 Firefox/136.0" version="26.1.0">
  <diagram name="Page-1" id="jIAjzlRB5ozrFk951E2j">
    <mxGraphModel dx="1257" dy="686" grid="1" gridSize="10" guides="1" tooltips="1" connect="1" arrows="1" fold="1" page="1" pageScale="1" pageWidth="595" pageHeight="842" math="1" shadow="0">
      <root>
        <mxCell id="0" />
        <mxCell id="1" parent="0" />
        <mxCell id="fjjCcIhR5FJAD0Cf6J86-1" value="" style="rounded=0;whiteSpace=wrap;html=1;strokeWidth=1;" vertex="1" parent="1">
          <mxGeometry x="28.05" y="10" width="672" height="690.5" as="geometry" />
        </mxCell>
        <mxCell id="fjjCcIhR5FJAD0Cf6J86-296" value="" style="endArrow=block;html=1;rounded=0;entryX=0;entryY=0.25;entryDx=0;entryDy=0;endSize=1;endFill=1;strokeColor=#FFFF00;exitX=1.007;exitY=0.215;exitDx=0;exitDy=0;exitPerimeter=0;" edge="1" parent="1" source="fjjCcIhR5FJAD0Cf6J86-214" target="fjjCcIhR5FJAD0Cf6J86-276">
          <mxGeometry width="50" height="50" relative="1" as="geometry">
            <mxPoint x="160" y="40" as="sourcePoint" />
            <mxPoint x="290" y="40" as="targetPoint" />
            <Array as="points">
              <mxPoint x="170" y="50" />
              <mxPoint x="190" y="50" />
              <mxPoint x="220" y="50" />
              <mxPoint x="280" y="50" />
              <mxPoint x="410" y="50" />
              <mxPoint x="410" y="280" />
            </Array>
          </mxGeometry>
        </mxCell>
        <mxCell id="fjjCcIhR5FJAD0Cf6J86-227" value="" style="endArrow=block;html=1;rounded=0;exitX=0;exitY=0.5;exitDx=0;exitDy=0;entryX=0.751;entryY=-0.205;entryDx=0;entryDy=0;entryPerimeter=0;endSize=1;endFill=1;strokeWidth=2;" edge="1" parent="1" source="fjjCcIhR5FJAD0Cf6J86-287" target="fjjCcIhR5FJAD0Cf6J86-107">
          <mxGeometry width="50" height="50" relative="1" as="geometry">
            <mxPoint x="630" y="470" as="sourcePoint" />
            <mxPoint x="288" y="260" as="targetPoint" />
            <Array as="points">
              <mxPoint x="621" y="250" />
              <mxPoint x="288" y="250" />
            </Array>
          </mxGeometry>
        </mxCell>
        <mxCell id="fjjCcIhR5FJAD0Cf6J86-2" style="edgeStyle=orthogonalEdgeStyle;rounded=0;orthogonalLoop=1;jettySize=auto;html=1;strokeWidth=2;endArrow=block;endFill=1;endSize=1;entryX=0.001;entryY=0.861;entryDx=0;entryDy=0;entryPerimeter=0;" edge="1" parent="1" target="fjjCcIhR5FJAD0Cf6J86-214">
          <mxGeometry relative="1" as="geometry">
            <mxPoint x="80" y="130" as="targetPoint" />
            <Array as="points">
              <mxPoint x="643" y="690" />
              <mxPoint x="90" y="690" />
              <mxPoint x="90" y="141" />
            </Array>
            <mxPoint x="640" y="690" as="sourcePoint" />
          </mxGeometry>
        </mxCell>
        <mxCell id="fjjCcIhR5FJAD0Cf6J86-3" value="" style="endArrow=block;html=1;rounded=0;exitX=1;exitY=0.75;exitDx=0;exitDy=0;entryX=0;entryY=1;entryDx=0;entryDy=0;endSize=1;endFill=1;strokeWidth=2;" edge="1" parent="1" target="fjjCcIhR5FJAD0Cf6J86-94">
          <mxGeometry width="50" height="50" relative="1" as="geometry">
            <mxPoint x="149.49999999999994" y="603.115" as="sourcePoint" />
            <mxPoint x="216.99999999999994" y="660" as="targetPoint" />
            <Array as="points">
              <mxPoint x="156.99999999999994" y="603" />
            </Array>
          </mxGeometry>
        </mxCell>
        <mxCell id="fjjCcIhR5FJAD0Cf6J86-4" value="" style="endArrow=block;html=1;rounded=0;exitX=1;exitY=0.25;exitDx=0;exitDy=0;entryX=0;entryY=0;entryDx=0;entryDy=0;endSize=1;endFill=1;strokeWidth=2;" edge="1" parent="1" target="fjjCcIhR5FJAD0Cf6J86-94">
          <mxGeometry width="50" height="50" relative="1" as="geometry">
            <mxPoint x="149.49999999999994" y="494.345" as="sourcePoint" />
            <mxPoint x="226.99999999999994" y="470" as="targetPoint" />
            <Array as="points">
              <mxPoint x="156.99999999999994" y="494" />
            </Array>
          </mxGeometry>
        </mxCell>
        <mxCell id="fjjCcIhR5FJAD0Cf6J86-5" value="" style="rounded=0;whiteSpace=wrap;html=1;" vertex="1" parent="1">
          <mxGeometry x="44.839999999999975" y="442.46000000000004" width="111.5" height="217.54" as="geometry" />
        </mxCell>
        <mxCell id="fjjCcIhR5FJAD0Cf6J86-6" value="" style="rounded=0;whiteSpace=wrap;html=1;" vertex="1" parent="1">
          <mxGeometry x="429.49999999999994" y="421.46000000000004" width="111.5" height="217.54" as="geometry" />
        </mxCell>
        <mxCell id="fjjCcIhR5FJAD0Cf6J86-7" value="" style="rounded=0;whiteSpace=wrap;html=1;" vertex="1" parent="1">
          <mxGeometry x="426.49999999999994" y="424.46000000000004" width="111.5" height="217.54" as="geometry" />
        </mxCell>
        <mxCell id="fjjCcIhR5FJAD0Cf6J86-8" value="" style="rounded=0;whiteSpace=wrap;html=1;" vertex="1" parent="1">
          <mxGeometry x="423.49999999999994" y="427.46000000000004" width="111.5" height="217.54" as="geometry" />
        </mxCell>
        <mxCell id="fjjCcIhR5FJAD0Cf6J86-9" value="" style="rounded=0;whiteSpace=wrap;html=1;" vertex="1" parent="1">
          <mxGeometry x="420.49999999999994" y="430.46000000000004" width="111.5" height="217.54" as="geometry" />
        </mxCell>
        <mxCell id="fjjCcIhR5FJAD0Cf6J86-10" value="" style="rounded=0;whiteSpace=wrap;html=1;" vertex="1" parent="1">
          <mxGeometry x="417.49999999999994" y="433.46000000000004" width="111.5" height="217.54" as="geometry" />
        </mxCell>
        <mxCell id="fjjCcIhR5FJAD0Cf6J86-11" value="" style="rounded=0;whiteSpace=wrap;html=1;" vertex="1" parent="1">
          <mxGeometry x="414.49999999999994" y="436.46000000000004" width="111.5" height="217.54" as="geometry" />
        </mxCell>
        <mxCell id="fjjCcIhR5FJAD0Cf6J86-12" value="" style="rounded=0;whiteSpace=wrap;html=1;" vertex="1" parent="1">
          <mxGeometry x="411.49999999999994" y="439.46000000000004" width="111.5" height="217.54" as="geometry" />
        </mxCell>
        <mxCell id="fjjCcIhR5FJAD0Cf6J86-13" value="" style="rounded=0;whiteSpace=wrap;html=1;" vertex="1" parent="1">
          <mxGeometry x="287.84" y="422.46000000000004" width="99.71" height="216.54" as="geometry" />
        </mxCell>
        <mxCell id="fjjCcIhR5FJAD0Cf6J86-14" value="" style="rounded=0;whiteSpace=wrap;html=1;" vertex="1" parent="1">
          <mxGeometry x="284.84" y="425.46000000000004" width="99.71" height="216.54" as="geometry" />
        </mxCell>
        <mxCell id="fjjCcIhR5FJAD0Cf6J86-15" value="" style="endArrow=block;html=1;rounded=0;endFill=1;strokeWidth=2;exitX=1.004;exitY=0.568;exitDx=0;exitDy=0;exitPerimeter=0;entryX=0;entryY=0.5;entryDx=0;entryDy=0;startFill=0;endSize=1;" edge="1" parent="1" source="fjjCcIhR5FJAD0Cf6J86-16" target="fjjCcIhR5FJAD0Cf6J86-40">
          <mxGeometry width="50" height="50" relative="1" as="geometry">
            <mxPoint x="382.6102899999999" y="551.3100000000002" as="sourcePoint" />
            <mxPoint x="491.46149999999994" y="552.0599999999997" as="targetPoint" />
          </mxGeometry>
        </mxCell>
        <mxCell id="fjjCcIhR5FJAD0Cf6J86-16" value="" style="rounded=0;whiteSpace=wrap;html=1;" vertex="1" parent="1">
          <mxGeometry x="282.34" y="428.46000000000004" width="99.71" height="216.54" as="geometry" />
        </mxCell>
        <mxCell id="fjjCcIhR5FJAD0Cf6J86-17" value="" style="rounded=0;whiteSpace=wrap;html=1;" vertex="1" parent="1">
          <mxGeometry x="279.34" y="431.46000000000004" width="99.71" height="216.54" as="geometry" />
        </mxCell>
        <mxCell id="fjjCcIhR5FJAD0Cf6J86-18" value="" style="rounded=0;whiteSpace=wrap;html=1;" vertex="1" parent="1">
          <mxGeometry x="276.34" y="434.46000000000004" width="99.71" height="216.54" as="geometry" />
        </mxCell>
        <mxCell id="fjjCcIhR5FJAD0Cf6J86-19" value="" style="rounded=0;whiteSpace=wrap;html=1;" vertex="1" parent="1">
          <mxGeometry x="273.34" y="437.46000000000004" width="99.71" height="216.54" as="geometry" />
        </mxCell>
        <mxCell id="fjjCcIhR5FJAD0Cf6J86-20" value="" style="rounded=0;whiteSpace=wrap;html=1;" vertex="1" parent="1">
          <mxGeometry x="270.34" y="440.46000000000004" width="99.71" height="216.54" as="geometry" />
        </mxCell>
        <mxCell id="fjjCcIhR5FJAD0Cf6J86-21" value="" style="endArrow=block;html=1;rounded=0;exitX=0.713;exitY=1.004;exitDx=0;exitDy=0;exitPerimeter=0;entryX=-0.002;entryY=0.45;entryDx=0;entryDy=0;entryPerimeter=0;endSize=1;endFill=1;strokeWidth=2;" edge="1" parent="1" source="fjjCcIhR5FJAD0Cf6J86-58">
          <mxGeometry width="50" height="50" relative="1" as="geometry">
            <mxPoint x="239.99999999999994" y="582" as="sourcePoint" />
            <mxPoint x="267.14057999999994" y="531.903" as="targetPoint" />
          </mxGeometry>
        </mxCell>
        <mxCell id="fjjCcIhR5FJAD0Cf6J86-22" value="" style="endArrow=block;html=1;rounded=0;exitX=0.764;exitY=1.013;exitDx=0;exitDy=0;exitPerimeter=0;entryX=-0.005;entryY=0.335;entryDx=0;entryDy=0;entryPerimeter=0;endSize=1;endFill=1;strokeWidth=2;" edge="1" parent="1">
          <mxGeometry width="50" height="50" relative="1" as="geometry">
            <mxPoint x="231.99999999999994" y="542" as="sourcePoint" />
            <mxPoint x="266.99999999999994" y="542" as="targetPoint" />
          </mxGeometry>
        </mxCell>
        <mxCell id="fjjCcIhR5FJAD0Cf6J86-23" value="" style="endArrow=block;html=1;rounded=0;exitX=0.764;exitY=1.013;exitDx=0;exitDy=0;exitPerimeter=0;entryX=-0.005;entryY=0.335;entryDx=0;entryDy=0;entryPerimeter=0;endSize=1;endFill=1;strokeWidth=2;" edge="1" parent="1">
          <mxGeometry width="50" height="50" relative="1" as="geometry">
            <mxPoint x="231.99999999999994" y="552" as="sourcePoint" />
            <mxPoint x="266.99999999999994" y="552" as="targetPoint" />
          </mxGeometry>
        </mxCell>
        <mxCell id="fjjCcIhR5FJAD0Cf6J86-24" value="" style="endArrow=block;html=1;rounded=0;exitX=0.764;exitY=1.013;exitDx=0;exitDy=0;exitPerimeter=0;entryX=-0.005;entryY=0.335;entryDx=0;entryDy=0;entryPerimeter=0;endSize=1;endFill=1;strokeWidth=2;" edge="1" parent="1">
          <mxGeometry width="50" height="50" relative="1" as="geometry">
            <mxPoint x="231.99999999999994" y="562" as="sourcePoint" />
            <mxPoint x="266.99999999999994" y="562" as="targetPoint" />
          </mxGeometry>
        </mxCell>
        <mxCell id="fjjCcIhR5FJAD0Cf6J86-25" value="" style="endArrow=block;html=1;rounded=0;exitX=0.764;exitY=1.013;exitDx=0;exitDy=0;exitPerimeter=0;entryX=-0.005;entryY=0.335;entryDx=0;entryDy=0;entryPerimeter=0;endSize=1;endFill=1;strokeWidth=2;" edge="1" parent="1">
          <mxGeometry width="50" height="50" relative="1" as="geometry">
            <mxPoint x="231.99999999999994" y="572" as="sourcePoint" />
            <mxPoint x="266.99999999999994" y="572" as="targetPoint" />
          </mxGeometry>
        </mxCell>
        <mxCell id="fjjCcIhR5FJAD0Cf6J86-26" value="" style="endArrow=block;html=1;rounded=0;exitX=0.764;exitY=1.013;exitDx=0;exitDy=0;exitPerimeter=0;entryX=-0.005;entryY=0.335;entryDx=0;entryDy=0;entryPerimeter=0;endSize=1;endFill=1;strokeWidth=2;" edge="1" parent="1">
          <mxGeometry width="50" height="50" relative="1" as="geometry">
            <mxPoint x="231.99999999999994" y="582" as="sourcePoint" />
            <mxPoint x="266.99999999999994" y="582" as="targetPoint" />
          </mxGeometry>
        </mxCell>
        <mxCell id="fjjCcIhR5FJAD0Cf6J86-27" value="" style="endArrow=block;html=1;rounded=0;exitX=0.764;exitY=1.013;exitDx=0;exitDy=0;exitPerimeter=0;entryX=-0.005;entryY=0.335;entryDx=0;entryDy=0;entryPerimeter=0;endSize=1;endFill=1;strokeWidth=2;" edge="1" parent="1">
          <mxGeometry width="50" height="50" relative="1" as="geometry">
            <mxPoint x="231.99999999999994" y="592" as="sourcePoint" />
            <mxPoint x="266.99999999999994" y="592" as="targetPoint" />
          </mxGeometry>
        </mxCell>
        <mxCell id="fjjCcIhR5FJAD0Cf6J86-28" value="" style="endArrow=block;html=1;rounded=0;exitX=0.764;exitY=1.013;exitDx=0;exitDy=0;exitPerimeter=0;entryX=-0.005;entryY=0.335;entryDx=0;entryDy=0;entryPerimeter=0;endSize=1;endFill=1;strokeWidth=2;" edge="1" parent="1">
          <mxGeometry width="50" height="50" relative="1" as="geometry">
            <mxPoint x="231.99999999999994" y="602" as="sourcePoint" />
            <mxPoint x="266.99999999999994" y="602" as="targetPoint" />
          </mxGeometry>
        </mxCell>
        <mxCell id="fjjCcIhR5FJAD0Cf6J86-29" value="" style="rounded=0;whiteSpace=wrap;html=1;" vertex="1" parent="1">
          <mxGeometry x="267.34" y="443.46000000000004" width="99.71" height="216.54" as="geometry" />
        </mxCell>
        <mxCell id="fjjCcIhR5FJAD0Cf6J86-30" value="" style="rounded=1;whiteSpace=wrap;html=1;" vertex="1" parent="1">
          <mxGeometry x="276.47999999999996" y="563.46" width="81.42" height="20" as="geometry" />
        </mxCell>
        <mxCell id="fjjCcIhR5FJAD0Cf6J86-31" value="" style="rounded=1;whiteSpace=wrap;html=1;" vertex="1" parent="1">
          <mxGeometry x="276.47999999999996" y="543.46" width="81.42" height="20" as="geometry" />
        </mxCell>
        <mxCell id="fjjCcIhR5FJAD0Cf6J86-32" value="" style="rounded=1;whiteSpace=wrap;html=1;" vertex="1" parent="1">
          <mxGeometry x="276.47999999999996" y="523.46" width="81.42" height="20" as="geometry" />
        </mxCell>
        <mxCell id="fjjCcIhR5FJAD0Cf6J86-33" value="" style="rounded=1;whiteSpace=wrap;html=1;" vertex="1" parent="1">
          <mxGeometry x="276.47999999999996" y="503.46000000000004" width="81.42" height="20" as="geometry" />
        </mxCell>
        <mxCell id="fjjCcIhR5FJAD0Cf6J86-34" value="" style="rounded=1;whiteSpace=wrap;html=1;" vertex="1" parent="1">
          <mxGeometry x="276.47999999999996" y="483.46000000000004" width="81.42" height="20" as="geometry" />
        </mxCell>
        <mxCell id="fjjCcIhR5FJAD0Cf6J86-35" value="" style="rounded=1;whiteSpace=wrap;html=1;" vertex="1" parent="1">
          <mxGeometry x="276.47999999999996" y="463.46000000000004" width="81.42" height="20" as="geometry" />
        </mxCell>
        <mxCell id="fjjCcIhR5FJAD0Cf6J86-36" value="" style="endArrow=none;dashed=1;html=1;dashPattern=1 3;strokeWidth=2;rounded=0;" edge="1" parent="1">
          <mxGeometry width="50" height="50" relative="1" as="geometry">
            <mxPoint x="316.7699999999999" y="590.0699999999999" as="sourcePoint" />
            <mxPoint x="316.7699999999999" y="610.0699999999999" as="targetPoint" />
          </mxGeometry>
        </mxCell>
        <mxCell id="fjjCcIhR5FJAD0Cf6J86-37" value="" style="rounded=1;whiteSpace=wrap;html=1;" vertex="1" parent="1">
          <mxGeometry x="276.47999999999996" y="616.23" width="81.42" height="20" as="geometry" />
        </mxCell>
        <mxCell id="fjjCcIhR5FJAD0Cf6J86-38" value="&lt;font style=&quot;font-size: 8px;&quot;&gt;$$\text{en}$$&lt;/font&gt;" style="text;html=1;align=center;verticalAlign=middle;whiteSpace=wrap;rounded=0;" vertex="1" parent="1">
          <mxGeometry x="278.32" y="449.69000000000005" width="10.52" height="7.54" as="geometry" />
        </mxCell>
        <mxCell id="fjjCcIhR5FJAD0Cf6J86-39" value="&lt;font style=&quot;font-size: 8px;&quot;&gt;$$\text{cs}$$&lt;/font&gt;" style="text;html=1;align=center;verticalAlign=middle;whiteSpace=wrap;rounded=0;" vertex="1" parent="1">
          <mxGeometry x="346.49999999999994" y="449.69000000000005" width="9.1" height="7.54" as="geometry" />
        </mxCell>
        <mxCell id="fjjCcIhR5FJAD0Cf6J86-40" value="" style="rounded=0;whiteSpace=wrap;html=1;" vertex="1" parent="1">
          <mxGeometry x="408.49999999999994" y="442.46000000000004" width="111.5" height="217.54" as="geometry" />
        </mxCell>
        <mxCell id="fjjCcIhR5FJAD0Cf6J86-41" value="&lt;font style=&quot;font-size: 8px;&quot;&gt;$$\text{start}$$&lt;/font&gt;" style="text;html=1;align=center;verticalAlign=middle;whiteSpace=wrap;rounded=0;" vertex="1" parent="1">
          <mxGeometry x="416.99999999999994" y="443.46000000000004" width="30" height="20" as="geometry" />
        </mxCell>
        <mxCell id="fjjCcIhR5FJAD0Cf6J86-42" value="" style="shape=trapezoid;perimeter=trapezoidPerimeter;whiteSpace=wrap;html=1;fixedSize=1;rotation=-90;fillColor=#FFFFFF;strokeWidth=1;" vertex="1" parent="1">
          <mxGeometry x="508.7999999999999" y="552.6300000000001" width="131.22" height="28.44" as="geometry" />
        </mxCell>
        <mxCell id="fjjCcIhR5FJAD0Cf6J86-43" value="" style="endArrow=block;html=1;rounded=0;endFill=1;strokeWidth=2;exitX=0.997;exitY=0.072;exitDx=0;exitDy=0;exitPerimeter=0;entryX=0.44;entryY=-0.018;entryDx=0;entryDy=0;entryPerimeter=0;endSize=1;" edge="1" parent="1">
          <mxGeometry width="50" height="50" relative="1" as="geometry">
            <mxPoint x="520.0044999999998" y="602.6499999999996" as="sourcePoint" />
            <mxPoint x="559.6880799999999" y="602.6272000000004" as="targetPoint" />
          </mxGeometry>
        </mxCell>
        <mxCell id="fjjCcIhR5FJAD0Cf6J86-44" value="" style="endArrow=block;html=1;rounded=0;endFill=1;strokeWidth=2;exitX=0.997;exitY=0.072;exitDx=0;exitDy=0;exitPerimeter=0;entryX=0.471;entryY=-0.019;entryDx=0;entryDy=0;entryPerimeter=0;endSize=1;" edge="1" parent="1">
          <mxGeometry width="50" height="50" relative="1" as="geometry">
            <mxPoint x="523.0044999999998" y="592.6299999999997" as="sourcePoint" />
            <mxPoint x="559.6596400000001" y="592.6804800000004" as="targetPoint" />
          </mxGeometry>
        </mxCell>
        <mxCell id="fjjCcIhR5FJAD0Cf6J86-45" value="" style="endArrow=block;html=1;rounded=0;endFill=1;strokeWidth=2;exitX=1.001;exitY=0.483;exitDx=0;exitDy=0;exitPerimeter=0;entryX=0.471;entryY=-0.019;entryDx=0;entryDy=0;entryPerimeter=0;endSize=1;" edge="1" parent="1">
          <mxGeometry width="50" height="50" relative="1" as="geometry">
            <mxPoint x="526.1385" y="582.5300000000002" as="sourcePoint" />
            <mxPoint x="559.6596400000001" y="582.4504800000004" as="targetPoint" />
          </mxGeometry>
        </mxCell>
        <mxCell id="fjjCcIhR5FJAD0Cf6J86-46" value="" style="endArrow=block;html=1;rounded=0;endFill=1;strokeWidth=2;exitX=1.001;exitY=0.447;exitDx=0;exitDy=0;exitPerimeter=0;entryX=0.471;entryY=-0.019;entryDx=0;entryDy=0;entryPerimeter=0;endSize=1;" edge="1" parent="1">
          <mxGeometry width="50" height="50" relative="1" as="geometry">
            <mxPoint x="529.6385" y="572.0900000000001" as="sourcePoint" />
            <mxPoint x="559.51964" y="572.2204800000004" as="targetPoint" />
          </mxGeometry>
        </mxCell>
        <mxCell id="fjjCcIhR5FJAD0Cf6J86-47" value="" style="endArrow=block;html=1;rounded=0;endFill=1;strokeWidth=2;exitX=1.001;exitY=0.447;exitDx=0;exitDy=0;exitPerimeter=0;entryX=0.578;entryY=-0.018;entryDx=0;entryDy=0;entryPerimeter=0;endSize=1;" edge="1" parent="1">
          <mxGeometry width="50" height="50" relative="1" as="geometry">
            <mxPoint x="532.5" y="561.73" as="sourcePoint" />
            <mxPoint x="559.6880799999999" y="561.8966400000004" as="targetPoint" />
          </mxGeometry>
        </mxCell>
        <mxCell id="fjjCcIhR5FJAD0Cf6J86-48" value="" style="endArrow=block;html=1;rounded=0;endFill=1;strokeWidth=2;exitX=1.001;exitY=0.616;exitDx=0;exitDy=0;exitPerimeter=0;entryX=0.61;entryY=-0.016;entryDx=0;entryDy=0;entryPerimeter=0;endSize=1;" edge="1" parent="1">
          <mxGeometry width="50" height="50" relative="1" as="geometry">
            <mxPoint x="535.1385" y="552.4646399999999" as="sourcePoint" />
            <mxPoint x="559.74496" y="552.5968000000003" as="targetPoint" />
          </mxGeometry>
        </mxCell>
        <mxCell id="fjjCcIhR5FJAD0Cf6J86-49" value="" style="endArrow=block;html=1;rounded=0;endFill=1;strokeWidth=2;exitX=1.001;exitY=0.586;exitDx=0;exitDy=0;exitPerimeter=0;entryX=0.648;entryY=-0.017;entryDx=0;entryDy=0;entryPerimeter=0;endSize=1;" edge="1" parent="1">
          <mxGeometry width="50" height="50" relative="1" as="geometry">
            <mxPoint x="538.1385" y="542.9384400000001" as="sourcePoint" />
            <mxPoint x="559.71652" y="543.1782400000002" as="targetPoint" />
          </mxGeometry>
        </mxCell>
        <mxCell id="fjjCcIhR5FJAD0Cf6J86-50" value="" style="endArrow=block;html=1;rounded=0;endFill=1;strokeWidth=2;exitX=1.002;exitY=0.556;exitDx=0;exitDy=0;exitPerimeter=0;entryX=0.684;entryY=-0.017;entryDx=0;entryDy=0;entryPerimeter=0;endSize=1;" edge="1" parent="1">
          <mxGeometry width="50" height="50" relative="1" as="geometry">
            <mxPoint x="541.277" y="533.4122400000001" as="sourcePoint" />
            <mxPoint x="559.71652" y="533.4659200000001" as="targetPoint" />
          </mxGeometry>
        </mxCell>
        <mxCell id="fjjCcIhR5FJAD0Cf6J86-51" value="" style="endArrow=block;html=1;rounded=0;endFill=1;strokeWidth=2;exitX=1.004;exitY=0.727;exitDx=0;exitDy=0;exitPerimeter=0;entryX=-0.002;entryY=0.729;entryDx=0;entryDy=0;entryPerimeter=0;startFill=0;endSize=1;" edge="1" parent="1" source="fjjCcIhR5FJAD0Cf6J86-29" target="fjjCcIhR5FJAD0Cf6J86-40">
          <mxGeometry width="50" height="50" relative="1" as="geometry">
            <mxPoint x="367.5485499999999" y="600.81" as="sourcePoint" />
            <mxPoint x="491.46949999999987" y="601.3499999999999" as="targetPoint" />
          </mxGeometry>
        </mxCell>
        <mxCell id="fjjCcIhR5FJAD0Cf6J86-52" value="" style="endArrow=block;html=1;rounded=0;endFill=1;strokeWidth=2;exitX=1.001;exitY=0.701;exitDx=0;exitDy=0;exitPerimeter=0;startFill=0;endSize=1;entryX=-0.003;entryY=0.688;entryDx=0;entryDy=0;entryPerimeter=0;" edge="1" parent="1" source="fjjCcIhR5FJAD0Cf6J86-20" target="fjjCcIhR5FJAD0Cf6J86-40">
          <mxGeometry width="50" height="50" relative="1" as="geometry">
            <mxPoint x="370.68855" y="592.1547" as="sourcePoint" />
            <mxPoint x="409.99999999999994" y="592" as="targetPoint" />
          </mxGeometry>
        </mxCell>
        <mxCell id="fjjCcIhR5FJAD0Cf6J86-53" value="" style="endArrow=block;html=1;rounded=0;endFill=1;strokeWidth=2;exitX=1.004;exitY=0.667;exitDx=0;exitDy=0;exitPerimeter=0;entryX=-0.005;entryY=0.642;entryDx=0;entryDy=0;entryPerimeter=0;startFill=0;endSize=1;" edge="1" parent="1" source="fjjCcIhR5FJAD0Cf6J86-19" target="fjjCcIhR5FJAD0Cf6J86-40">
          <mxGeometry width="50" height="50" relative="1" as="geometry">
            <mxPoint x="373.7097099999999" y="581.8300000000004" as="sourcePoint" />
            <mxPoint x="491.49999999999994" y="582.19" as="targetPoint" />
          </mxGeometry>
        </mxCell>
        <mxCell id="fjjCcIhR5FJAD0Cf6J86-54" value="" style="endArrow=block;html=1;rounded=0;endFill=1;strokeWidth=2;exitX=1.003;exitY=0.676;exitDx=0;exitDy=0;exitPerimeter=0;entryX=-0.004;entryY=0.596;entryDx=0;entryDy=0;entryPerimeter=0;startFill=0;endSize=1;" edge="1" parent="1" target="fjjCcIhR5FJAD0Cf6J86-40">
          <mxGeometry width="50" height="50" relative="1" as="geometry">
            <mxPoint x="376.34913" y="571.8410400000002" as="sourcePoint" />
            <mxPoint x="491.49999999999994" y="572.3899999999999" as="targetPoint" />
          </mxGeometry>
        </mxCell>
        <mxCell id="fjjCcIhR5FJAD0Cf6J86-55" value="" style="endArrow=block;html=1;rounded=0;endFill=1;strokeWidth=2;exitX=1.024;exitY=0.564;exitDx=0;exitDy=0;exitPerimeter=0;entryX=-0.003;entryY=0.456;entryDx=0;entryDy=0;entryPerimeter=0;startFill=0;startSize=6;endSize=1;" edge="1" parent="1" target="fjjCcIhR5FJAD0Cf6J86-40">
          <mxGeometry width="50" height="50" relative="1" as="geometry">
            <mxPoint x="384.44304000000005" y="541.5885600000001" as="sourcePoint" />
            <mxPoint x="491.3614999999999" y="541.98" as="targetPoint" />
          </mxGeometry>
        </mxCell>
        <mxCell id="fjjCcIhR5FJAD0Cf6J86-56" value="" style="endArrow=block;html=1;rounded=0;endFill=1;strokeWidth=2;exitX=1.004;exitY=0.55;exitDx=0;exitDy=0;exitPerimeter=0;entryX=-0.002;entryY=0.415;entryDx=0;entryDy=0;entryPerimeter=0;startFill=0;endSize=1;" edge="1" parent="1" target="fjjCcIhR5FJAD0Cf6J86-40">
          <mxGeometry width="50" height="50" relative="1" as="geometry">
            <mxPoint x="387.94883999999996" y="532.557" as="sourcePoint" />
            <mxPoint x="491.49999999999994" y="531.6399999999999" as="targetPoint" />
          </mxGeometry>
        </mxCell>
        <mxCell id="fjjCcIhR5FJAD0Cf6J86-57" value="&lt;h5&gt;&lt;font face=&quot;Helvetica&quot; style=&quot;font-size: 8px;&quot;&gt;$$\text{Cmp}$$&lt;/font&gt;&lt;/h5&gt;" style="rounded=0;whiteSpace=wrap;html=1;rotation=0;" vertex="1" parent="1">
          <mxGeometry x="612" y="501.46000000000004" width="61" height="130" as="geometry" />
        </mxCell>
        <mxCell id="fjjCcIhR5FJAD0Cf6J86-58" value="" style="shape=trapezoid;perimeter=trapezoidPerimeter;whiteSpace=wrap;html=1;fixedSize=1;rotation=-90;fillColor=#FFFFFF;strokeWidth=1;" vertex="1" parent="1">
          <mxGeometry x="165.9999999999999" y="545.24" width="131.22" height="28.44" as="geometry" />
        </mxCell>
        <mxCell id="fjjCcIhR5FJAD0Cf6J86-59" value="" style="endArrow=block;html=1;rounded=0;exitX=0.5;exitY=1;exitDx=0;exitDy=0;entryX=0;entryY=0.5;entryDx=0;entryDy=0;endSize=1;endFill=1;strokeWidth=2;" edge="1" parent="1" source="fjjCcIhR5FJAD0Cf6J86-42" target="fjjCcIhR5FJAD0Cf6J86-57">
          <mxGeometry width="50" height="50" relative="1" as="geometry">
            <mxPoint x="631" y="592" as="sourcePoint" />
            <mxPoint x="681" y="542" as="targetPoint" />
          </mxGeometry>
        </mxCell>
        <mxCell id="fjjCcIhR5FJAD0Cf6J86-60" value="" style="shape=trapezoid;perimeter=trapezoidPerimeter;whiteSpace=wrap;html=1;fixedSize=1;rotation=-180;fillColor=#FFFFFF;strokeWidth=1;" vertex="1" parent="1">
          <mxGeometry x="253.14999999999992" y="389" width="60.87" height="28.44" as="geometry" />
        </mxCell>
        <mxCell id="fjjCcIhR5FJAD0Cf6J86-61" value="" style="shape=trapezoid;perimeter=trapezoidPerimeter;whiteSpace=wrap;html=1;fixedSize=1;rotation=-180;fillColor=#FFFFFF;strokeWidth=1;" vertex="1" parent="1">
          <mxGeometry x="322.10999999999996" y="389" width="62.65" height="28.44" as="geometry" />
        </mxCell>
        <mxCell id="fjjCcIhR5FJAD0Cf6J86-62" value="&lt;font style=&quot;font-size: 8px;&quot;&gt;$$\text{RBSrc}$$&lt;/font&gt;" style="text;html=1;align=center;verticalAlign=middle;whiteSpace=wrap;rounded=0;" vertex="1" parent="1">
          <mxGeometry x="335.68" y="388.9999999999999" width="35.52" height="16.44" as="geometry" />
        </mxCell>
        <mxCell id="fjjCcIhR5FJAD0Cf6J86-63" value="&lt;font style=&quot;font-size: 8px;&quot;&gt;$$\text{RSrc}$$&lt;/font&gt;" style="text;html=1;align=center;verticalAlign=middle;whiteSpace=wrap;rounded=0;" vertex="1" parent="1">
          <mxGeometry x="265.8199999999999" y="388.9999999999999" width="35.52" height="16.44" as="geometry" />
        </mxCell>
        <mxCell id="fjjCcIhR5FJAD0Cf6J86-64" style="edgeStyle=orthogonalEdgeStyle;rounded=0;orthogonalLoop=1;jettySize=auto;html=1;entryX=0.168;entryY=0.002;entryDx=0;entryDy=0;entryPerimeter=0;endSize=1;endArrow=block;endFill=1;strokeWidth=2;" edge="1" parent="1" source="fjjCcIhR5FJAD0Cf6J86-60" target="fjjCcIhR5FJAD0Cf6J86-29">
          <mxGeometry relative="1" as="geometry" />
        </mxCell>
        <mxCell id="fjjCcIhR5FJAD0Cf6J86-65" style="edgeStyle=orthogonalEdgeStyle;rounded=0;orthogonalLoop=1;jettySize=auto;html=1;entryX=0.829;entryY=0.012;entryDx=0;entryDy=0;entryPerimeter=0;endSize=1;endArrow=block;endFill=1;strokeWidth=2;" edge="1" parent="1" source="fjjCcIhR5FJAD0Cf6J86-61" target="fjjCcIhR5FJAD0Cf6J86-20">
          <mxGeometry relative="1" as="geometry" />
        </mxCell>
        <mxCell id="fjjCcIhR5FJAD0Cf6J86-66" value="" style="ellipse;whiteSpace=wrap;html=1;aspect=fixed;fillColor=#F0F0F0;" vertex="1" parent="1">
          <mxGeometry x="427.8846153846153" y="482.4652631578948" width="21.16315789473683" height="21.16315789473683" as="geometry" />
        </mxCell>
        <mxCell id="fjjCcIhR5FJAD0Cf6J86-67" value="" style="endArrow=blockThin;html=1;rounded=0;exitX=1;exitY=0.5;exitDx=0;exitDy=0;entryX=0;entryY=0;entryDx=0;entryDy=0;endFill=1;endSize=1;" edge="1" parent="1" target="fjjCcIhR5FJAD0Cf6J86-66">
          <mxGeometry width="50" height="50" relative="1" as="geometry">
            <mxPoint x="412.49999999999994" y="474" as="sourcePoint" />
            <mxPoint x="489.42307692307685" y="448.6042105263159" as="targetPoint" />
            <Array as="points">
              <mxPoint x="427.8846153846153" y="474" />
            </Array>
          </mxGeometry>
        </mxCell>
        <mxCell id="fjjCcIhR5FJAD0Cf6J86-68" value="" style="endArrow=blockThin;html=1;rounded=0;entryX=0;entryY=1;entryDx=0;entryDy=0;exitX=1;exitY=0.5;exitDx=0;exitDy=0;endFill=1;endSize=1;" edge="1" parent="1" target="fjjCcIhR5FJAD0Cf6J86-66">
          <mxGeometry width="50" height="50" relative="1" as="geometry">
            <mxPoint x="412.49999999999994" y="516.3263157894737" as="sourcePoint" />
            <mxPoint x="443.26923076923066" y="524.7915789473684" as="targetPoint" />
            <Array as="points">
              <mxPoint x="427.8846153846153" y="516.3263157894737" />
            </Array>
          </mxGeometry>
        </mxCell>
        <mxCell id="fjjCcIhR5FJAD0Cf6J86-69" value="&lt;font style=&quot;font-size: 14px;&quot;&gt;$$\geq$$&lt;/font&gt;" style="text;html=1;align=center;verticalAlign=middle;whiteSpace=wrap;rounded=0;" vertex="1" parent="1">
          <mxGeometry x="432.65384615384613" y="485.98007017543864" width="11.538461538461535" height="12.6978947368421" as="geometry" />
        </mxCell>
        <mxCell id="fjjCcIhR5FJAD0Cf6J86-70" style="edgeStyle=orthogonalEdgeStyle;rounded=0;orthogonalLoop=1;jettySize=auto;html=1;exitX=1.013;exitY=0.599;exitDx=0;exitDy=0;entryX=0;entryY=0.5;entryDx=0;entryDy=0;endArrow=blockThin;endFill=1;curved=0;endSize=1;exitPerimeter=0;" edge="1" parent="1">
          <mxGeometry relative="1" as="geometry">
            <mxPoint x="449.32289433198383" y="495.1419947368422" as="sourcePoint" />
            <mxPoint x="462.50000000000006" y="495.16315789473674" as="targetPoint" />
          </mxGeometry>
        </mxCell>
        <mxCell id="fjjCcIhR5FJAD0Cf6J86-71" value="" style="ellipse;whiteSpace=wrap;html=1;aspect=fixed;fillColor=#F0F0F0;" vertex="1" parent="1">
          <mxGeometry x="427.8846153846153" y="541.7221052631578" width="21.16315789473683" height="21.16315789473683" as="geometry" />
        </mxCell>
        <mxCell id="fjjCcIhR5FJAD0Cf6J86-72" value="" style="endArrow=blockThin;html=1;rounded=0;exitX=1;exitY=0.5;exitDx=0;exitDy=0;entryX=0;entryY=0;entryDx=0;entryDy=0;endFill=1;endSize=1;" edge="1" parent="1" target="fjjCcIhR5FJAD0Cf6J86-71">
          <mxGeometry width="50" height="50" relative="1" as="geometry">
            <mxPoint x="412.49999999999994" y="533.2568421052631" as="sourcePoint" />
            <mxPoint x="489.42307692307685" y="507.8610526315789" as="targetPoint" />
            <Array as="points">
              <mxPoint x="427.8846153846153" y="533.2568421052631" />
            </Array>
          </mxGeometry>
        </mxCell>
        <mxCell id="fjjCcIhR5FJAD0Cf6J86-73" value="" style="endArrow=blockThin;html=1;rounded=0;entryX=0;entryY=1;entryDx=0;entryDy=0;exitX=1;exitY=0.5;exitDx=0;exitDy=0;endFill=1;endSize=1;" edge="1" parent="1" target="fjjCcIhR5FJAD0Cf6J86-71">
          <mxGeometry width="50" height="50" relative="1" as="geometry">
            <mxPoint x="412.49999999999994" y="575.5831578947368" as="sourcePoint" />
            <mxPoint x="443.26923076923066" y="584.0484210526315" as="targetPoint" />
            <Array as="points">
              <mxPoint x="427.8846153846153" y="575.5831578947368" />
            </Array>
          </mxGeometry>
        </mxCell>
        <mxCell id="fjjCcIhR5FJAD0Cf6J86-74" value="&lt;font style=&quot;font-size: 14px;&quot;&gt;$$\geq$$&lt;/font&gt;" style="text;html=1;align=center;verticalAlign=middle;whiteSpace=wrap;rounded=0;" vertex="1" parent="1">
          <mxGeometry x="432.65384615384613" y="545.2369122807017" width="11.538461538461535" height="12.6978947368421" as="geometry" />
        </mxCell>
        <mxCell id="fjjCcIhR5FJAD0Cf6J86-75" style="edgeStyle=orthogonalEdgeStyle;rounded=0;orthogonalLoop=1;jettySize=auto;html=1;exitX=1.004;exitY=0.599;exitDx=0;exitDy=0;entryX=0;entryY=0.5;entryDx=0;entryDy=0;endArrow=blockThin;endFill=1;endSize=1;exitPerimeter=0;" edge="1" parent="1">
          <mxGeometry relative="1" as="geometry">
            <mxPoint x="449.1324259109312" y="554.3988368421051" as="sourcePoint" />
            <mxPoint x="462.50000000000006" y="554.4200000000001" as="targetPoint" />
          </mxGeometry>
        </mxCell>
        <mxCell id="fjjCcIhR5FJAD0Cf6J86-76" value="" style="rounded=0;whiteSpace=wrap;html=1;" vertex="1" parent="1">
          <mxGeometry x="462.49999999999994" y="478.23263157894723" width="15.384615384615378" height="33.86105263157893" as="geometry" />
        </mxCell>
        <mxCell id="fjjCcIhR5FJAD0Cf6J86-77" value="" style="triangle;whiteSpace=wrap;html=1;rotation=-90;" vertex="1" parent="1">
          <mxGeometry x="466.34615384615375" y="503.62842105263167" width="7.692307692307689" height="8.465263157894732" as="geometry" />
        </mxCell>
        <mxCell id="fjjCcIhR5FJAD0Cf6J86-78" value="" style="rounded=0;whiteSpace=wrap;html=1;" vertex="1" parent="1">
          <mxGeometry x="462.49999999999994" y="537.4894736842105" width="15.384615384615378" height="33.86105263157893" as="geometry" />
        </mxCell>
        <mxCell id="fjjCcIhR5FJAD0Cf6J86-79" value="" style="triangle;whiteSpace=wrap;html=1;rotation=-90;" vertex="1" parent="1">
          <mxGeometry x="466.34615384615375" y="562.8852631578948" width="7.692307692307689" height="8.465263157894732" as="geometry" />
        </mxCell>
        <mxCell id="fjjCcIhR5FJAD0Cf6J86-80" value="" style="ellipse;whiteSpace=wrap;html=1;aspect=fixed;fillColor=#F0F0F0;" vertex="1" parent="1">
          <mxGeometry x="427.8846153846153" y="600.9789473684211" width="21.16315789473683" height="21.16315789473683" as="geometry" />
        </mxCell>
        <mxCell id="fjjCcIhR5FJAD0Cf6J86-81" value="" style="endArrow=blockThin;html=1;rounded=0;exitX=1;exitY=0.5;exitDx=0;exitDy=0;entryX=0;entryY=0;entryDx=0;entryDy=0;endFill=1;endSize=1;" edge="1" parent="1" target="fjjCcIhR5FJAD0Cf6J86-80">
          <mxGeometry width="50" height="50" relative="1" as="geometry">
            <mxPoint x="412.49999999999994" y="592.5136842105262" as="sourcePoint" />
            <mxPoint x="489.42307692307685" y="567.1178947368419" as="targetPoint" />
            <Array as="points">
              <mxPoint x="427.8846153846153" y="592.5136842105262" />
            </Array>
          </mxGeometry>
        </mxCell>
        <mxCell id="fjjCcIhR5FJAD0Cf6J86-82" value="" style="endArrow=blockThin;html=1;rounded=0;entryX=0;entryY=1;entryDx=0;entryDy=0;exitX=1;exitY=0.5;exitDx=0;exitDy=0;endFill=1;endSize=1;" edge="1" parent="1" target="fjjCcIhR5FJAD0Cf6J86-80">
          <mxGeometry width="50" height="50" relative="1" as="geometry">
            <mxPoint x="412.49999999999994" y="634.8399999999999" as="sourcePoint" />
            <mxPoint x="443.26923076923066" y="643.3052631578946" as="targetPoint" />
            <Array as="points">
              <mxPoint x="427.8846153846153" y="634.8399999999999" />
            </Array>
          </mxGeometry>
        </mxCell>
        <mxCell id="fjjCcIhR5FJAD0Cf6J86-83" value="&lt;font style=&quot;font-size: 14px;&quot;&gt;$$\geq$$&lt;/font&gt;" style="text;html=1;align=center;verticalAlign=middle;whiteSpace=wrap;rounded=0;" vertex="1" parent="1">
          <mxGeometry x="432.65384615384613" y="604.4937543859648" width="11.538461538461535" height="12.6978947368421" as="geometry" />
        </mxCell>
        <mxCell id="fjjCcIhR5FJAD0Cf6J86-84" style="edgeStyle=orthogonalEdgeStyle;rounded=0;orthogonalLoop=1;jettySize=auto;html=1;exitX=1.021;exitY=0.604;exitDx=0;exitDy=0;entryX=0;entryY=0.5;entryDx=0;entryDy=0;endArrow=blockThin;endFill=1;curved=0;endSize=1;exitPerimeter=0;" edge="1" parent="1">
          <mxGeometry relative="1" as="geometry">
            <mxPoint x="448.4921995951417" y="613.7614947368422" as="sourcePoint" />
            <mxPoint x="461.50000000000006" y="613.676842105263" as="targetPoint" />
          </mxGeometry>
        </mxCell>
        <mxCell id="fjjCcIhR5FJAD0Cf6J86-85" value="" style="rounded=0;whiteSpace=wrap;html=1;" vertex="1" parent="1">
          <mxGeometry x="462.49999999999994" y="596.7463157894736" width="15.384615384615378" height="33.86105263157893" as="geometry" />
        </mxCell>
        <mxCell id="fjjCcIhR5FJAD0Cf6J86-86" value="" style="triangle;whiteSpace=wrap;html=1;rotation=-90;" vertex="1" parent="1">
          <mxGeometry x="466.34615384615375" y="622.1421052631576" width="7.692307692307689" height="8.465263157894732" as="geometry" />
        </mxCell>
        <mxCell id="fjjCcIhR5FJAD0Cf6J86-87" value="" style="ellipse;whiteSpace=wrap;html=1;aspect=fixed;fillColor=#F0F0F0;" vertex="1" parent="1">
          <mxGeometry x="489.42307692307685" y="512.0936842105262" width="21.16315789473683" height="21.16315789473683" as="geometry" />
        </mxCell>
        <mxCell id="fjjCcIhR5FJAD0Cf6J86-88" value="&lt;font style=&quot;font-size: 14px;&quot;&gt;$$\geq$$&lt;/font&gt;" style="text;html=1;align=center;verticalAlign=middle;whiteSpace=wrap;rounded=0;" vertex="1" parent="1">
          <mxGeometry x="494.19230769230757" y="515.6084912280703" width="11.538461538461535" height="12.6978947368421" as="geometry" />
        </mxCell>
        <mxCell id="fjjCcIhR5FJAD0Cf6J86-89" value="" style="endArrow=blockThin;html=1;rounded=0;exitX=1;exitY=0.5;exitDx=0;exitDy=0;entryX=0;entryY=0;entryDx=0;entryDy=0;endFill=1;endSize=1;" edge="1" parent="1" source="fjjCcIhR5FJAD0Cf6J86-76" target="fjjCcIhR5FJAD0Cf6J86-87">
          <mxGeometry width="50" height="50" relative="1" as="geometry">
            <mxPoint x="493.26923076923066" y="524.7915789473684" as="sourcePoint" />
            <mxPoint x="531.7307692307693" y="482.4652631578948" as="targetPoint" />
            <Array as="points">
              <mxPoint x="485.57692307692304" y="495.16315789473686" />
            </Array>
          </mxGeometry>
        </mxCell>
        <mxCell id="fjjCcIhR5FJAD0Cf6J86-90" value="" style="endArrow=blockThin;html=1;rounded=0;exitX=1;exitY=0.5;exitDx=0;exitDy=0;entryX=0;entryY=1;entryDx=0;entryDy=0;endFill=1;endSize=1;" edge="1" parent="1" source="fjjCcIhR5FJAD0Cf6J86-78" target="fjjCcIhR5FJAD0Cf6J86-87">
          <mxGeometry width="50" height="50" relative="1" as="geometry">
            <mxPoint x="516.3461538461536" y="592.5136842105262" as="sourcePoint" />
            <mxPoint x="554.8076923076924" y="550.1873684210527" as="targetPoint" />
            <Array as="points">
              <mxPoint x="485.57692307692304" y="554.4199999999998" />
            </Array>
          </mxGeometry>
        </mxCell>
        <mxCell id="fjjCcIhR5FJAD0Cf6J86-91" value="" style="endArrow=none;dashed=1;html=1;dashPattern=1 3;strokeWidth=2;rounded=0;" edge="1" parent="1">
          <mxGeometry width="50" height="50" relative="1" as="geometry">
            <mxPoint x="450.96" y="593.2191228070176" as="sourcePoint" />
            <mxPoint x="450.96" y="574.8777192982457" as="targetPoint" />
          </mxGeometry>
        </mxCell>
        <mxCell id="fjjCcIhR5FJAD0Cf6J86-92" value="" style="endArrow=none;dashed=1;html=1;dashPattern=1 3;strokeWidth=2;rounded=0;" edge="1" parent="1">
          <mxGeometry width="50" height="50" relative="1" as="geometry">
            <mxPoint x="494.19" y="573.2463736842105" as="sourcePoint" />
            <mxPoint x="514.1899999999998" y="573.2188615789473" as="targetPoint" />
          </mxGeometry>
        </mxCell>
        <mxCell id="fjjCcIhR5FJAD0Cf6J86-93" value="" style="endArrow=blockThin;html=1;rounded=0;exitX=1;exitY=0.5;exitDx=0;exitDy=0;entryX=0;entryY=1;entryDx=0;entryDy=0;endFill=1;endSize=1;" edge="1" parent="1">
          <mxGeometry width="50" height="50" relative="1" as="geometry">
            <mxPoint x="477.87999999999994" y="613.954079473684" as="sourcePoint" />
            <mxPoint x="492.87999999999994" y="590.1102549122807" as="targetPoint" />
            <Array as="points">
              <mxPoint x="485.45692307692303" y="614.0937563157893" />
            </Array>
          </mxGeometry>
        </mxCell>
        <mxCell id="fjjCcIhR5FJAD0Cf6J86-94" value="" style="ellipse;whiteSpace=wrap;html=1;aspect=fixed;" vertex="1" parent="1">
          <mxGeometry x="165.6799999999999" y="532.01" width="32.17" height="32.17" as="geometry" />
        </mxCell>
        <mxCell id="fjjCcIhR5FJAD0Cf6J86-95" value="" style="endArrow=block;html=1;rounded=0;exitX=1;exitY=0.5;exitDx=0;exitDy=0;entryX=0.587;entryY=-0.022;entryDx=0;entryDy=0;entryPerimeter=0;endSize=1;endFill=1;strokeWidth=2;" edge="1" parent="1" source="fjjCcIhR5FJAD0Cf6J86-94" target="fjjCcIhR5FJAD0Cf6J86-58">
          <mxGeometry width="50" height="50" relative="1" as="geometry">
            <mxPoint x="201.99999999999994" y="548.22" as="sourcePoint" />
            <mxPoint x="219.99999999999994" y="548.22" as="targetPoint" />
          </mxGeometry>
        </mxCell>
        <mxCell id="fjjCcIhR5FJAD0Cf6J86-96" value="" style="endArrow=none;html=1;rounded=0;" edge="1" parent="1">
          <mxGeometry width="50" height="50" relative="1" as="geometry">
            <mxPoint x="171.75999999999993" y="548.8600000000001" as="sourcePoint" />
            <mxPoint x="191.75999999999993" y="548.8600000000001" as="targetPoint" />
          </mxGeometry>
        </mxCell>
        <mxCell id="fjjCcIhR5FJAD0Cf6J86-97" style="edgeStyle=orthogonalEdgeStyle;rounded=0;orthogonalLoop=1;jettySize=auto;html=1;entryX=0.25;entryY=1;entryDx=0;entryDy=0;endSize=1;strokeWidth=2;endArrow=block;endFill=1;" edge="1" parent="1" source="fjjCcIhR5FJAD0Cf6J86-98" target="fjjCcIhR5FJAD0Cf6J86-61">
          <mxGeometry relative="1" as="geometry" />
        </mxCell>
        <mxCell id="fjjCcIhR5FJAD0Cf6J86-98" value="&lt;font style=&quot;font-size: 8px;&quot;&gt;$$0$$&lt;/font&gt;" style="rounded=0;whiteSpace=wrap;html=1;" vertex="1" parent="1">
          <mxGeometry x="363.71" y="347" width="11.34" height="17" as="geometry" />
        </mxCell>
        <mxCell id="fjjCcIhR5FJAD0Cf6J86-99" style="edgeStyle=orthogonalEdgeStyle;rounded=0;orthogonalLoop=1;jettySize=auto;html=1;entryX=0.75;entryY=1;entryDx=0;entryDy=0;endSize=1;endArrow=block;endFill=1;strokeWidth=2;" edge="1" parent="1" source="fjjCcIhR5FJAD0Cf6J86-100" target="fjjCcIhR5FJAD0Cf6J86-61">
          <mxGeometry relative="1" as="geometry" />
        </mxCell>
        <mxCell id="fjjCcIhR5FJAD0Cf6J86-100" value="&lt;font style=&quot;font-size: 8px;&quot;&gt;$$\text{DecRB}$$&lt;/font&gt;" style="rounded=0;whiteSpace=wrap;html=1;" vertex="1" parent="1">
          <mxGeometry x="322.10999999999984" y="310" width="50.1" height="28" as="geometry" />
        </mxCell>
        <mxCell id="fjjCcIhR5FJAD0Cf6J86-101" style="edgeStyle=orthogonalEdgeStyle;rounded=0;orthogonalLoop=1;jettySize=auto;html=1;entryX=0.25;entryY=1;entryDx=0;entryDy=0;endSize=1;strokeWidth=2;endArrow=block;endFill=1;" edge="1" parent="1" source="fjjCcIhR5FJAD0Cf6J86-102">
          <mxGeometry relative="1" as="geometry">
            <mxPoint x="298.99999999999994" y="389" as="targetPoint" />
          </mxGeometry>
        </mxCell>
        <mxCell id="fjjCcIhR5FJAD0Cf6J86-102" value="&lt;font style=&quot;font-size: 8px;&quot;&gt;$$0$$&lt;/font&gt;" style="rounded=0;whiteSpace=wrap;html=1;" vertex="1" parent="1">
          <mxGeometry x="293.71" y="347" width="11.34" height="17" as="geometry" />
        </mxCell>
        <mxCell id="fjjCcIhR5FJAD0Cf6J86-103" style="edgeStyle=orthogonalEdgeStyle;rounded=0;orthogonalLoop=1;jettySize=auto;html=1;entryX=0.75;entryY=1;entryDx=0;entryDy=0;endSize=1;endArrow=block;endFill=1;strokeWidth=2;" edge="1" parent="1" source="fjjCcIhR5FJAD0Cf6J86-104">
          <mxGeometry relative="1" as="geometry">
            <mxPoint x="267.99999999999994" y="389" as="targetPoint" />
          </mxGeometry>
        </mxCell>
        <mxCell id="fjjCcIhR5FJAD0Cf6J86-104" value="&lt;font style=&quot;font-size: 8px;&quot;&gt;$$\text{DecR}$$&lt;/font&gt;" style="rounded=0;whiteSpace=wrap;html=1;" vertex="1" parent="1">
          <mxGeometry x="252.10999999999984" y="310" width="50.1" height="28" as="geometry" />
        </mxCell>
        <mxCell id="fjjCcIhR5FJAD0Cf6J86-105" style="edgeStyle=orthogonalEdgeStyle;rounded=0;orthogonalLoop=1;jettySize=auto;html=1;entryX=0.5;entryY=0;entryDx=0;entryDy=0;endSize=1;endArrow=block;endFill=1;strokeWidth=2;" edge="1" parent="1" source="fjjCcIhR5FJAD0Cf6J86-106" target="fjjCcIhR5FJAD0Cf6J86-104">
          <mxGeometry relative="1" as="geometry" />
        </mxCell>
        <mxCell id="fjjCcIhR5FJAD0Cf6J86-106" value="" style="shape=trapezoid;perimeter=trapezoidPerimeter;whiteSpace=wrap;html=1;fixedSize=1;rotation=-180;fillColor=#FFFFFF;strokeWidth=1;flipH=0;flipV=0;direction=east;" vertex="1" parent="1">
          <mxGeometry x="246.71999999999997" y="262" width="60.87" height="28.44" as="geometry" />
        </mxCell>
        <mxCell id="fjjCcIhR5FJAD0Cf6J86-107" value="&lt;font style=&quot;font-size: 8px;&quot;&gt;$$\text{DecRSrc}$$&lt;/font&gt;" style="text;html=1;align=center;verticalAlign=middle;whiteSpace=wrap;rounded=0;" vertex="1" parent="1">
          <mxGeometry x="255.73999999999995" y="265" width="42.84" height="12.56" as="geometry" />
        </mxCell>
        <mxCell id="fjjCcIhR5FJAD0Cf6J86-108" value="" style="endArrow=block;html=1;rounded=0;endFill=1;strokeWidth=2;exitX=0.974;exitY=0.616;exitDx=0;exitDy=0;exitPerimeter=0;startFill=0;endSize=1;entryX=-0.003;entryY=0.547;entryDx=0;entryDy=0;entryPerimeter=0;" edge="1" parent="1" source="fjjCcIhR5FJAD0Cf6J86-16" target="fjjCcIhR5FJAD0Cf6J86-40">
          <mxGeometry width="50" height="50" relative="1" as="geometry">
            <mxPoint x="380.0088399999999" y="561.8500000000004" as="sourcePoint" />
            <mxPoint x="409.99999999999994" y="562" as="targetPoint" />
          </mxGeometry>
        </mxCell>
        <mxCell id="fjjCcIhR5FJAD0Cf6J86-109" value="" style="shape=trapezoid;perimeter=trapezoidPerimeter;whiteSpace=wrap;html=1;fixedSize=1;rotation=180;fillColor=#FFFFFF;strokeWidth=1;" vertex="1" parent="1">
          <mxGeometry x="398.99999999999994" y="354.005" width="75.65" height="28.44" as="geometry" />
        </mxCell>
        <mxCell id="fjjCcIhR5FJAD0Cf6J86-113" value="&lt;font style=&quot;font-size: 8px;&quot;&gt;$$\text{TrigMTreeSrc}$$&lt;/font&gt;" style="text;html=1;align=center;verticalAlign=middle;whiteSpace=wrap;rounded=0;rotation=0;" vertex="1" parent="1">
          <mxGeometry x="406.82" y="353.005" width="60" height="18" as="geometry" />
        </mxCell>
        <mxCell id="fjjCcIhR5FJAD0Cf6J86-114" value="" style="endArrow=block;html=1;rounded=0;exitX=0.5;exitY=0;exitDx=0;exitDy=0;entryX=0.006;entryY=0.525;entryDx=0;entryDy=0;entryPerimeter=0;endSize=1;endFill=1;strokeWidth=2;" edge="1" parent="1" source="fjjCcIhR5FJAD0Cf6J86-109" target="fjjCcIhR5FJAD0Cf6J86-111">
          <mxGeometry width="50" height="50" relative="1" as="geometry">
            <mxPoint x="394.99999999999994" y="384.005" as="sourcePoint" />
            <mxPoint x="444.99999999999994" y="434.005" as="targetPoint" />
          </mxGeometry>
        </mxCell>
        <mxCell id="fjjCcIhR5FJAD0Cf6J86-115" style="edgeStyle=orthogonalEdgeStyle;rounded=0;orthogonalLoop=1;jettySize=auto;html=1;entryX=0.25;entryY=1;entryDx=0;entryDy=0;endSize=1;strokeWidth=2;endArrow=block;endFill=1;" edge="1" parent="1" source="fjjCcIhR5FJAD0Cf6J86-116">
          <mxGeometry relative="1" as="geometry">
            <mxPoint x="454.47999999999996" y="354" as="targetPoint" />
          </mxGeometry>
        </mxCell>
        <mxCell id="fjjCcIhR5FJAD0Cf6J86-116" value="&lt;font style=&quot;font-size: 8px;&quot;&gt;$$0$$&lt;/font&gt;" style="rounded=0;whiteSpace=wrap;html=1;" vertex="1" parent="1">
          <mxGeometry x="449.19" y="311" width="11.34" height="17" as="geometry" />
        </mxCell>
        <mxCell id="fjjCcIhR5FJAD0Cf6J86-117" value="" style="endArrow=block;html=1;rounded=0;entryX=0.75;entryY=1;entryDx=0;entryDy=0;strokeWidth=2;endFill=1;endSize=1;" edge="1" parent="1" target="fjjCcIhR5FJAD0Cf6J86-109">
          <mxGeometry width="50" height="50" relative="1" as="geometry">
            <mxPoint x="347.99999999999994" y="343" as="sourcePoint" />
            <mxPoint x="509.99999999999994" y="343" as="targetPoint" />
            <Array as="points">
              <mxPoint x="417.99999999999994" y="343" />
            </Array>
          </mxGeometry>
        </mxCell>
        <mxCell id="fjjCcIhR5FJAD0Cf6J86-118" value="" style="endArrow=block;html=1;rounded=0;exitX=0.997;exitY=0.522;exitDx=0;exitDy=0;exitPerimeter=0;entryX=0.65;entryY=-0.047;entryDx=0;entryDy=0;entryPerimeter=0;strokeWidth=2;endFill=1;endSize=1;" edge="1" parent="1" source="fjjCcIhR5FJAD0Cf6J86-111" target="fjjCcIhR5FJAD0Cf6J86-41">
          <mxGeometry width="50" height="50" relative="1" as="geometry">
            <mxPoint x="489.99999999999994" y="450" as="sourcePoint" />
            <mxPoint x="540" y="400" as="targetPoint" />
          </mxGeometry>
        </mxCell>
        <mxCell id="fjjCcIhR5FJAD0Cf6J86-119" style="edgeStyle=orthogonalEdgeStyle;rounded=0;orthogonalLoop=1;jettySize=auto;html=1;exitX=1;exitY=0;exitDx=0;exitDy=0;entryX=0;entryY=0.25;entryDx=0;entryDy=0;endArrow=blockThin;endFill=1;endSize=1;" edge="1" parent="1" source="fjjCcIhR5FJAD0Cf6J86-120" target="fjjCcIhR5FJAD0Cf6J86-125">
          <mxGeometry relative="1" as="geometry" />
        </mxCell>
        <mxCell id="fjjCcIhR5FJAD0Cf6J86-120" value="" style="ellipse;whiteSpace=wrap;html=1;aspect=fixed;fillColor=#F0F0F0;" vertex="1" parent="1">
          <mxGeometry x="63.671604682482155" y="487.6651653442891" width="20.84912244352723" height="20.84912244352723" as="geometry" />
        </mxCell>
        <mxCell id="fjjCcIhR5FJAD0Cf6J86-121" value="" style="endArrow=blockThin;html=1;rounded=0;exitX=1;exitY=0.5;exitDx=0;exitDy=0;entryX=0;entryY=0;entryDx=0;entryDy=0;endFill=1;endSize=1;" edge="1" parent="1" target="fjjCcIhR5FJAD0Cf6J86-120">
          <mxGeometry width="50" height="50" relative="1" as="geometry">
            <mxPoint x="48.99999999999994" y="480" as="sourcePoint" />
            <mxPoint x="122.35802341241055" y="457.0045039671327" as="targetPoint" />
            <Array as="points">
              <mxPoint x="63.671604682482155" y="480" />
            </Array>
          </mxGeometry>
        </mxCell>
        <mxCell id="fjjCcIhR5FJAD0Cf6J86-122" value="" style="endArrow=blockThin;html=1;rounded=0;entryX=0;entryY=1;entryDx=0;entryDy=0;exitX=1;exitY=0.5;exitDx=0;exitDy=0;endFill=1;endSize=1;" edge="1" parent="1" target="fjjCcIhR5FJAD0Cf6J86-120">
          <mxGeometry width="50" height="50" relative="1" as="geometry">
            <mxPoint x="48.99999999999994" y="518.3258267214458" as="sourcePoint" />
            <mxPoint x="78.34320936496425" y="525.9909920657346" as="targetPoint" />
            <Array as="points">
              <mxPoint x="63.671604682482155" y="518.3258267214458" />
            </Array>
          </mxGeometry>
        </mxCell>
        <mxCell id="fjjCcIhR5FJAD0Cf6J86-123" value="&lt;font style=&quot;font-size: 14px;&quot;&gt;$$\geq$$&lt;/font&gt;" style="text;html=1;align=center;verticalAlign=middle;whiteSpace=wrap;rounded=0;" vertex="1" parent="1">
          <mxGeometry x="68.23980886770954" y="491.458476852506" width="11.003703511861593" height="11.497748016433675" as="geometry" />
        </mxCell>
        <mxCell id="fjjCcIhR5FJAD0Cf6J86-124" value="" style="group" vertex="1" connectable="0" parent="1">
          <mxGeometry x="93.01481404744624" y="483.83258267214455" width="14.671604682482126" height="30.660661377156465" as="geometry" />
        </mxCell>
        <mxCell id="fjjCcIhR5FJAD0Cf6J86-125" value="" style="rounded=0;whiteSpace=wrap;html=1;" vertex="1" parent="fjjCcIhR5FJAD0Cf6J86-124">
          <mxGeometry width="14.671604682482126" height="30.660661377156465" as="geometry" />
        </mxCell>
        <mxCell id="fjjCcIhR5FJAD0Cf6J86-126" value="" style="triangle;whiteSpace=wrap;html=1;rotation=-90;" vertex="1" parent="fjjCcIhR5FJAD0Cf6J86-124">
          <mxGeometry x="3.6679011706205316" y="22.995496032867347" width="7.335802341241063" height="7.665165344289116" as="geometry" />
        </mxCell>
        <mxCell id="fjjCcIhR5FJAD0Cf6J86-127" style="edgeStyle=orthogonalEdgeStyle;rounded=0;orthogonalLoop=1;jettySize=auto;html=1;exitX=1;exitY=0.5;exitDx=0;exitDy=0;endArrow=blockThin;endFill=1;curved=0;endSize=1;" edge="1" parent="1" source="fjjCcIhR5FJAD0Cf6J86-128">
          <mxGeometry relative="1" as="geometry">
            <mxPoint x="151.99999999999994" y="498" as="targetPoint" />
          </mxGeometry>
        </mxCell>
        <mxCell id="fjjCcIhR5FJAD0Cf6J86-128" value="" style="ellipse;whiteSpace=wrap;html=1;aspect=fixed;fillColor=#F0F0F0;" vertex="1" parent="1">
          <mxGeometry x="118.69012224179" y="487.6651653442891" width="20.84912244352723" height="20.84912244352723" as="geometry" />
        </mxCell>
        <mxCell id="fjjCcIhR5FJAD0Cf6J86-129" value="&lt;font style=&quot;font-size: 14px;&quot;&gt;$$\geq$$&lt;/font&gt;" style="text;html=1;align=center;verticalAlign=middle;whiteSpace=wrap;rounded=0;" vertex="1" parent="1">
          <mxGeometry x="123.2583264270175" y="491.458476852506" width="11.003703511861593" height="11.497748016433675" as="geometry" />
        </mxCell>
        <mxCell id="fjjCcIhR5FJAD0Cf6J86-130" style="edgeStyle=orthogonalEdgeStyle;rounded=0;orthogonalLoop=1;jettySize=auto;html=1;exitX=1;exitY=0.25;exitDx=0;exitDy=0;entryX=0;entryY=0;entryDx=0;entryDy=0;endArrow=blockThin;endFill=1;endSize=1;" edge="1" parent="1" source="fjjCcIhR5FJAD0Cf6J86-125" target="fjjCcIhR5FJAD0Cf6J86-128">
          <mxGeometry relative="1" as="geometry">
            <mxPoint x="115.02222107116944" y="491.49774801643366" as="targetPoint" />
          </mxGeometry>
        </mxCell>
        <mxCell id="fjjCcIhR5FJAD0Cf6J86-131" style="edgeStyle=orthogonalEdgeStyle;rounded=0;orthogonalLoop=1;jettySize=auto;html=1;exitX=1;exitY=0;exitDx=0;exitDy=0;entryX=0;entryY=0.25;entryDx=0;entryDy=0;endArrow=blockThin;endFill=1;endSize=1;" edge="1" parent="1" source="fjjCcIhR5FJAD0Cf6J86-132" target="fjjCcIhR5FJAD0Cf6J86-137">
          <mxGeometry relative="1" as="geometry" />
        </mxCell>
        <mxCell id="fjjCcIhR5FJAD0Cf6J86-132" value="" style="ellipse;whiteSpace=wrap;html=1;aspect=fixed;fillColor=#F0F0F0;" vertex="1" parent="1">
          <mxGeometry x="63.671604682482155" y="541.3213227543131" width="20.84912244352723" height="20.84912244352723" as="geometry" />
        </mxCell>
        <mxCell id="fjjCcIhR5FJAD0Cf6J86-133" value="" style="endArrow=blockThin;html=1;rounded=0;exitX=1;exitY=0.5;exitDx=0;exitDy=0;entryX=0;entryY=0;entryDx=0;entryDy=0;endFill=1;endSize=1;" edge="1" parent="1" target="fjjCcIhR5FJAD0Cf6J86-132">
          <mxGeometry width="50" height="50" relative="1" as="geometry">
            <mxPoint x="48.99999999999994" y="533.6561574100238" as="sourcePoint" />
            <mxPoint x="122.35802341241055" y="510.66066137715654" as="targetPoint" />
            <Array as="points">
              <mxPoint x="63.671604682482155" y="533.6561574100238" />
            </Array>
          </mxGeometry>
        </mxCell>
        <mxCell id="fjjCcIhR5FJAD0Cf6J86-134" value="" style="endArrow=blockThin;html=1;rounded=0;entryX=0;entryY=1;entryDx=0;entryDy=0;exitX=1;exitY=0.5;exitDx=0;exitDy=0;endFill=1;endSize=1;" edge="1" parent="1" target="fjjCcIhR5FJAD0Cf6J86-132">
          <mxGeometry width="50" height="50" relative="1" as="geometry">
            <mxPoint x="48.99999999999994" y="571.9819841314695" as="sourcePoint" />
            <mxPoint x="78.34320936496425" y="579.6471494757586" as="targetPoint" />
            <Array as="points">
              <mxPoint x="63.671604682482155" y="571.9819841314695" />
            </Array>
          </mxGeometry>
        </mxCell>
        <mxCell id="fjjCcIhR5FJAD0Cf6J86-135" value="&lt;font style=&quot;font-size: 14px;&quot;&gt;$$\geq$$&lt;/font&gt;" style="text;html=1;align=center;verticalAlign=middle;whiteSpace=wrap;rounded=0;" vertex="1" parent="1">
          <mxGeometry x="68.23980886770954" y="545.1146342625298" width="11.003703511861593" height="11.497748016433675" as="geometry" />
        </mxCell>
        <mxCell id="fjjCcIhR5FJAD0Cf6J86-136" value="" style="group" vertex="1" connectable="0" parent="1">
          <mxGeometry x="93.01481404744624" y="537.4887400821683" width="14.671604682482126" height="30.660661377156465" as="geometry" />
        </mxCell>
        <mxCell id="fjjCcIhR5FJAD0Cf6J86-137" value="" style="rounded=0;whiteSpace=wrap;html=1;" vertex="1" parent="fjjCcIhR5FJAD0Cf6J86-136">
          <mxGeometry width="14.671604682482126" height="30.660661377156465" as="geometry" />
        </mxCell>
        <mxCell id="fjjCcIhR5FJAD0Cf6J86-138" value="" style="triangle;whiteSpace=wrap;html=1;rotation=-90;" vertex="1" parent="fjjCcIhR5FJAD0Cf6J86-136">
          <mxGeometry x="3.6679011706205316" y="22.995496032867347" width="7.335802341241063" height="7.665165344289116" as="geometry" />
        </mxCell>
        <mxCell id="fjjCcIhR5FJAD0Cf6J86-139" value="" style="endArrow=blockThin;html=1;rounded=0;entryX=0;entryY=1;entryDx=0;entryDy=0;exitX=1;exitY=0.25;exitDx=0;exitDy=0;endFill=1;endSize=1;" edge="1" parent="1" source="fjjCcIhR5FJAD0Cf6J86-137" target="fjjCcIhR5FJAD0Cf6J86-128">
          <mxGeometry width="50" height="50" relative="1" as="geometry">
            <mxPoint x="137.02962809489276" y="556.6516534428913" as="sourcePoint" />
            <mxPoint x="173.70863980109795" y="518.3258267214458" as="targetPoint" />
            <Array as="points">
              <mxPoint x="115.02222107116944" y="545.1539054264576" />
            </Array>
          </mxGeometry>
        </mxCell>
        <mxCell id="fjjCcIhR5FJAD0Cf6J86-140" value="" style="ellipse;whiteSpace=wrap;html=1;aspect=fixed;fillColor=#F0F0F0;" vertex="1" parent="1">
          <mxGeometry x="118.69012224179" y="541.3213227543131" width="20.84912244352723" height="20.84912244352723" as="geometry" />
        </mxCell>
        <mxCell id="fjjCcIhR5FJAD0Cf6J86-141" value="&lt;font style=&quot;font-size: 14px;&quot;&gt;$$\geq$$&lt;/font&gt;" style="text;html=1;align=center;verticalAlign=middle;whiteSpace=wrap;rounded=0;" vertex="1" parent="1">
          <mxGeometry x="123.2583264270175" y="545.1146342625298" width="11.003703511861593" height="11.497748016433675" as="geometry" />
        </mxCell>
        <mxCell id="fjjCcIhR5FJAD0Cf6J86-142" value="" style="endArrow=blockThin;html=1;rounded=0;exitX=1;exitY=0.75;exitDx=0;exitDy=0;entryX=0;entryY=0;entryDx=0;entryDy=0;endFill=1;endSize=1;" edge="1" parent="1" source="fjjCcIhR5FJAD0Cf6J86-125" target="fjjCcIhR5FJAD0Cf6J86-140">
          <mxGeometry width="50" height="50" relative="1" as="geometry">
            <mxPoint x="159.03703511861585" y="541.3213227543131" as="sourcePoint" />
            <mxPoint x="195.71604682482115" y="502.9954960328673" as="targetPoint" />
            <Array as="points">
              <mxPoint x="115.02222107116944" y="506.8280787050119" />
            </Array>
          </mxGeometry>
        </mxCell>
        <mxCell id="fjjCcIhR5FJAD0Cf6J86-143" value="" style="ellipse;whiteSpace=wrap;html=1;aspect=fixed;fillColor=#000000;" vertex="1" parent="1">
          <mxGeometry x="82.01111053558469" y="483.83258267214455" width="3.474853740587872" height="3.474853740587872" as="geometry" />
        </mxCell>
        <mxCell id="fjjCcIhR5FJAD0Cf6J86-144" value="" style="ellipse;whiteSpace=wrap;html=1;aspect=fixed;fillColor=#000000;" vertex="1" parent="1">
          <mxGeometry x="82.01111053558469" y="564.3168187871804" width="3.474853740587872" height="3.474853740587872" as="geometry" />
        </mxCell>
        <mxCell id="fjjCcIhR5FJAD0Cf6J86-145" style="edgeStyle=orthogonalEdgeStyle;rounded=0;orthogonalLoop=1;jettySize=auto;html=1;exitX=1;exitY=0;exitDx=0;exitDy=0;entryX=0;entryY=0.25;entryDx=0;entryDy=0;endArrow=blockThin;endFill=1;endSize=1;" edge="1" parent="1" source="fjjCcIhR5FJAD0Cf6J86-146" target="fjjCcIhR5FJAD0Cf6J86-151">
          <mxGeometry relative="1" as="geometry" />
        </mxCell>
        <mxCell id="fjjCcIhR5FJAD0Cf6J86-146" value="" style="ellipse;whiteSpace=wrap;html=1;aspect=fixed;fillColor=#F0F0F0;" vertex="1" parent="1">
          <mxGeometry x="63.671604682482155" y="594.9774801643366" width="20.84912244352723" height="20.84912244352723" as="geometry" />
        </mxCell>
        <mxCell id="fjjCcIhR5FJAD0Cf6J86-147" value="" style="endArrow=blockThin;html=1;rounded=0;exitX=1;exitY=0.5;exitDx=0;exitDy=0;entryX=0;entryY=0;entryDx=0;entryDy=0;endFill=1;endSize=1;" edge="1" parent="1" target="fjjCcIhR5FJAD0Cf6J86-146">
          <mxGeometry width="50" height="50" relative="1" as="geometry">
            <mxPoint x="48.99999999999994" y="587.3123148200477" as="sourcePoint" />
            <mxPoint x="122.35802341241055" y="564.3168187871804" as="targetPoint" />
            <Array as="points">
              <mxPoint x="63.671604682482155" y="587.3123148200477" />
            </Array>
          </mxGeometry>
        </mxCell>
        <mxCell id="fjjCcIhR5FJAD0Cf6J86-148" value="" style="endArrow=blockThin;html=1;rounded=0;entryX=0;entryY=1;entryDx=0;entryDy=0;exitX=1;exitY=0.5;exitDx=0;exitDy=0;endFill=1;endSize=1;" edge="1" parent="1" target="fjjCcIhR5FJAD0Cf6J86-146">
          <mxGeometry width="50" height="50" relative="1" as="geometry">
            <mxPoint x="48.99999999999994" y="625.6381415414935" as="sourcePoint" />
            <mxPoint x="78.34320936496425" y="633.3033068857824" as="targetPoint" />
            <Array as="points">
              <mxPoint x="63.671604682482155" y="625.6381415414935" />
            </Array>
          </mxGeometry>
        </mxCell>
        <mxCell id="fjjCcIhR5FJAD0Cf6J86-149" value="&lt;font style=&quot;font-size: 14px;&quot;&gt;$$\geq$$&lt;/font&gt;" style="text;html=1;align=center;verticalAlign=middle;whiteSpace=wrap;rounded=0;" vertex="1" parent="1">
          <mxGeometry x="68.23980886770954" y="598.7707916725537" width="11.003703511861593" height="11.497748016433675" as="geometry" />
        </mxCell>
        <mxCell id="fjjCcIhR5FJAD0Cf6J86-150" value="" style="group" vertex="1" connectable="0" parent="1">
          <mxGeometry x="93.01481404744624" y="591.1448974921923" width="14.671604682482126" height="30.660661377156465" as="geometry" />
        </mxCell>
        <mxCell id="fjjCcIhR5FJAD0Cf6J86-151" value="" style="rounded=0;whiteSpace=wrap;html=1;" vertex="1" parent="fjjCcIhR5FJAD0Cf6J86-150">
          <mxGeometry width="14.671604682482126" height="30.660661377156465" as="geometry" />
        </mxCell>
        <mxCell id="fjjCcIhR5FJAD0Cf6J86-152" value="" style="triangle;whiteSpace=wrap;html=1;rotation=-90;" vertex="1" parent="fjjCcIhR5FJAD0Cf6J86-150">
          <mxGeometry x="3.6679011706205316" y="22.995496032867347" width="7.335802341241063" height="7.665165344289116" as="geometry" />
        </mxCell>
        <mxCell id="fjjCcIhR5FJAD0Cf6J86-153" value="" style="ellipse;whiteSpace=wrap;html=1;aspect=fixed;fillColor=#F0F0F0;" vertex="1" parent="1">
          <mxGeometry x="118.69012224179" y="594.9774801643366" width="20.84912244352723" height="20.84912244352723" as="geometry" />
        </mxCell>
        <mxCell id="fjjCcIhR5FJAD0Cf6J86-154" value="&lt;font style=&quot;font-size: 14px;&quot;&gt;$$\geq$$&lt;/font&gt;" style="text;html=1;align=center;verticalAlign=middle;whiteSpace=wrap;rounded=0;" vertex="1" parent="1">
          <mxGeometry x="123.2583264270175" y="598.7707916725537" width="11.003703511861593" height="11.497748016433675" as="geometry" />
        </mxCell>
        <mxCell id="fjjCcIhR5FJAD0Cf6J86-155" style="edgeStyle=orthogonalEdgeStyle;rounded=0;orthogonalLoop=1;jettySize=auto;html=1;exitX=1;exitY=0.25;exitDx=0;exitDy=0;entryX=0;entryY=0;entryDx=0;entryDy=0;endArrow=blockThin;endFill=1;endSize=1;" edge="1" parent="1" source="fjjCcIhR5FJAD0Cf6J86-151" target="fjjCcIhR5FJAD0Cf6J86-153">
          <mxGeometry relative="1" as="geometry">
            <mxPoint x="115.02222107116944" y="598.8100628364814" as="targetPoint" />
          </mxGeometry>
        </mxCell>
        <mxCell id="fjjCcIhR5FJAD0Cf6J86-156" value="" style="endArrow=blockThin;html=1;rounded=0;exitX=1;exitY=0.75;exitDx=0;exitDy=0;endFill=1;endSize=1;" edge="1" parent="1" source="fjjCcIhR5FJAD0Cf6J86-151">
          <mxGeometry width="50" height="50" relative="1" as="geometry">
            <mxPoint x="159.03703511861585" y="648.6336375743606" as="sourcePoint" />
            <mxPoint x="123.6918056562726" y="632.8899999999999" as="targetPoint" />
            <Array as="points">
              <mxPoint x="115.02222107116944" y="614.1403935250596" />
            </Array>
          </mxGeometry>
        </mxCell>
        <mxCell id="fjjCcIhR5FJAD0Cf6J86-157" value="" style="ellipse;whiteSpace=wrap;html=1;aspect=fixed;fillColor=#000000;" vertex="1" parent="1">
          <mxGeometry x="82.01111053558469" y="591.1448974921923" width="3.474853740587872" height="3.474853740587872" as="geometry" />
        </mxCell>
        <mxCell id="fjjCcIhR5FJAD0Cf6J86-158" value="" style="endArrow=none;dashed=1;html=1;dashPattern=1 3;strokeWidth=2;rounded=0;" edge="1" parent="1">
          <mxGeometry width="50" height="50" relative="1" as="geometry">
            <mxPoint x="126.99704858593174" y="580.7063710786183" as="sourcePoint" />
            <mxPoint x="145.6699999999999" y="580.6800815425329" as="targetPoint" />
          </mxGeometry>
        </mxCell>
        <mxCell id="fjjCcIhR5FJAD0Cf6J86-159" value="" style="endArrow=none;dashed=1;html=1;dashPattern=1 3;strokeWidth=2;rounded=0;" edge="1" parent="1">
          <mxGeometry width="50" height="50" relative="1" as="geometry">
            <mxPoint x="100.1265409717185" y="571.074661875" as="sourcePoint" />
            <mxPoint x="100.1265409717185" y="589.2303493750001" as="targetPoint" />
          </mxGeometry>
        </mxCell>
        <mxCell id="fjjCcIhR5FJAD0Cf6J86-160" value="" style="endArrow=blockThin;html=1;rounded=0;exitX=1;exitY=1;exitDx=0;exitDy=0;entryX=-0.017;entryY=0.696;entryDx=0;entryDy=0;entryPerimeter=0;endSize=1;endFill=1;" edge="1" parent="1" source="fjjCcIhR5FJAD0Cf6J86-120" target="fjjCcIhR5FJAD0Cf6J86-125">
          <mxGeometry width="50" height="50" relative="1" as="geometry">
            <mxPoint x="81.99999999999994" y="510" as="sourcePoint" />
            <mxPoint x="131.99999999999994" y="490" as="targetPoint" />
          </mxGeometry>
        </mxCell>
        <mxCell id="fjjCcIhR5FJAD0Cf6J86-161" value="" style="endArrow=blockThin;html=1;rounded=0;exitX=1;exitY=1;exitDx=0;exitDy=0;entryX=-0.017;entryY=0.696;entryDx=0;entryDy=0;entryPerimeter=0;endSize=1;endFill=1;" edge="1" parent="1">
          <mxGeometry width="50" height="50" relative="1" as="geometry">
            <mxPoint x="81.00999999999993" y="560.0899999999999" as="sourcePoint" />
            <mxPoint x="93.00999999999993" y="560.0899999999999" as="targetPoint" />
          </mxGeometry>
        </mxCell>
        <mxCell id="fjjCcIhR5FJAD0Cf6J86-162" value="" style="endArrow=blockThin;html=1;rounded=0;exitX=1;exitY=1;exitDx=0;exitDy=0;entryX=-0.017;entryY=0.696;entryDx=0;entryDy=0;entryPerimeter=0;endSize=1;endFill=1;" edge="1" parent="1">
          <mxGeometry width="50" height="50" relative="1" as="geometry">
            <mxPoint x="81.00999999999993" y="613.0899999999999" as="sourcePoint" />
            <mxPoint x="93.00999999999993" y="613.0899999999999" as="targetPoint" />
          </mxGeometry>
        </mxCell>
        <mxCell id="fjjCcIhR5FJAD0Cf6J86-163" value="" style="endArrow=blockThin;html=1;rounded=0;exitX=1.029;exitY=0.707;exitDx=0;exitDy=0;entryX=0;entryY=1;entryDx=0;entryDy=0;endSize=1;endFill=1;exitPerimeter=0;" edge="1" parent="1" source="fjjCcIhR5FJAD0Cf6J86-137" target="fjjCcIhR5FJAD0Cf6J86-140">
          <mxGeometry width="50" height="50" relative="1" as="geometry">
            <mxPoint x="108.00999999999993" y="560.0899999999999" as="sourcePoint" />
            <mxPoint x="120.00999999999993" y="560.0899999999999" as="targetPoint" />
          </mxGeometry>
        </mxCell>
        <mxCell id="fjjCcIhR5FJAD0Cf6J86-164" style="edgeStyle=orthogonalEdgeStyle;rounded=0;orthogonalLoop=1;jettySize=auto;html=1;exitX=1;exitY=0.5;exitDx=0;exitDy=0;endArrow=blockThin;endFill=1;curved=0;endSize=1;" edge="1" parent="1">
          <mxGeometry relative="1" as="geometry">
            <mxPoint x="139.5399999999999" y="551.6300000000001" as="sourcePoint" />
            <mxPoint x="151.5399999999999" y="551.6300000000001" as="targetPoint" />
          </mxGeometry>
        </mxCell>
        <mxCell id="fjjCcIhR5FJAD0Cf6J86-165" style="edgeStyle=orthogonalEdgeStyle;rounded=0;orthogonalLoop=1;jettySize=auto;html=1;exitX=1;exitY=0.5;exitDx=0;exitDy=0;endArrow=blockThin;endFill=1;curved=0;endSize=1;" edge="1" parent="1">
          <mxGeometry relative="1" as="geometry">
            <mxPoint x="139.5399999999999" y="606.3600000000001" as="sourcePoint" />
            <mxPoint x="151.5399999999999" y="606.3600000000001" as="targetPoint" />
          </mxGeometry>
        </mxCell>
        <mxCell id="fjjCcIhR5FJAD0Cf6J86-166" value="" style="endArrow=block;html=1;rounded=0;strokeWidth=2;endSize=1;endFill=1;entryX=0;entryY=0.75;entryDx=0;entryDy=0;" edge="1" parent="1" target="fjjCcIhR5FJAD0Cf6J86-57">
          <mxGeometry width="50" height="50" relative="1" as="geometry">
            <mxPoint x="199.99999999999994" y="549" as="sourcePoint" />
            <mxPoint x="209.99999999999994" y="589" as="targetPoint" />
            <Array as="points">
              <mxPoint x="199.99999999999994" y="580" />
              <mxPoint x="199.99999999999994" y="610" />
              <mxPoint x="199.99999999999994" y="670" />
              <mxPoint x="600" y="670" />
              <mxPoint x="600" y="599" />
            </Array>
          </mxGeometry>
        </mxCell>
        <mxCell id="fjjCcIhR5FJAD0Cf6J86-167" value="" style="endArrow=block;html=1;rounded=0;entryX=0.344;entryY=-0.008;entryDx=0;entryDy=0;entryPerimeter=0;endSize=1;endFill=1;strokeWidth=2;exitX=0;exitY=0.5;exitDx=0;exitDy=0;" edge="1" parent="1" source="fjjCcIhR5FJAD0Cf6J86-291" target="fjjCcIhR5FJAD0Cf6J86-58">
          <mxGeometry width="50" height="50" relative="1" as="geometry">
            <mxPoint x="620" y="660.2" as="sourcePoint" />
            <mxPoint x="213.5652399999999" y="579.93032" as="targetPoint" />
            <Array as="points">
              <mxPoint x="210" y="678" />
              <mxPoint x="210" y="580" />
            </Array>
          </mxGeometry>
        </mxCell>
        <mxCell id="fjjCcIhR5FJAD0Cf6J86-168" value="" style="endArrow=none;html=1;rounded=0;endSize=1;endFill=1;strokeWidth=2;startFill=0;" edge="1" parent="1">
          <mxGeometry width="50" height="50" relative="1" as="geometry">
            <mxPoint x="394.84" y="601" as="sourcePoint" />
            <mxPoint x="620" y="200" as="targetPoint" />
            <Array as="points">
              <mxPoint x="395" y="200" />
              <mxPoint x="460" y="200" />
              <mxPoint x="540" y="200" />
            </Array>
          </mxGeometry>
        </mxCell>
        <mxCell id="fjjCcIhR5FJAD0Cf6J86-169" style="edgeStyle=orthogonalEdgeStyle;rounded=0;orthogonalLoop=1;jettySize=auto;html=1;endSize=1;endArrow=block;endFill=1;strokeWidth=2;" edge="1" parent="1" source="fjjCcIhR5FJAD0Cf6J86-170">
          <mxGeometry relative="1" as="geometry">
            <mxPoint x="710" y="199" as="targetPoint" />
          </mxGeometry>
        </mxCell>
        <mxCell id="fjjCcIhR5FJAD0Cf6J86-170" value="" style="shape=trapezoid;perimeter=trapezoidPerimeter;whiteSpace=wrap;html=1;fixedSize=1;rotation=-90;fillColor=#FFFFFF;strokeWidth=1;" vertex="1" parent="1">
          <mxGeometry x="590.8" y="184.56000000000017" width="131.22" height="28.44" as="geometry" />
        </mxCell>
        <mxCell id="fjjCcIhR5FJAD0Cf6J86-171" value="" style="endArrow=block;html=1;rounded=0;entryX=-0.005;entryY=0.335;entryDx=0;entryDy=0;entryPerimeter=0;endSize=1;endFill=1;strokeWidth=2;" edge="1" parent="1">
          <mxGeometry width="50" height="50" relative="1" as="geometry">
            <mxPoint x="619.8399999999999" y="199" as="sourcePoint" />
            <mxPoint x="641.8599999999999" y="173.66000000000008" as="targetPoint" />
            <Array as="points">
              <mxPoint x="629.8399999999999" y="174" />
            </Array>
          </mxGeometry>
        </mxCell>
        <mxCell id="fjjCcIhR5FJAD0Cf6J86-172" value="" style="endArrow=block;html=1;rounded=0;entryX=-0.005;entryY=0.335;entryDx=0;entryDy=0;entryPerimeter=0;endSize=1;endFill=1;strokeWidth=2;" edge="1" parent="1">
          <mxGeometry width="50" height="50" relative="1" as="geometry">
            <mxPoint x="619.8399999999999" y="199" as="sourcePoint" />
            <mxPoint x="641.8599999999999" y="183.66000000000008" as="targetPoint" />
            <Array as="points">
              <mxPoint x="629.8399999999999" y="184" />
            </Array>
          </mxGeometry>
        </mxCell>
        <mxCell id="fjjCcIhR5FJAD0Cf6J86-173" value="" style="endArrow=block;html=1;rounded=0;entryX=-0.005;entryY=0.335;entryDx=0;entryDy=0;entryPerimeter=0;endSize=1;endFill=1;strokeWidth=2;" edge="1" parent="1">
          <mxGeometry width="50" height="50" relative="1" as="geometry">
            <mxPoint x="619.8399999999999" y="199" as="sourcePoint" />
            <mxPoint x="641.8599999999999" y="193.66000000000008" as="targetPoint" />
            <Array as="points">
              <mxPoint x="629.8399999999999" y="194" />
            </Array>
          </mxGeometry>
        </mxCell>
        <mxCell id="fjjCcIhR5FJAD0Cf6J86-174" value="" style="endArrow=block;html=1;rounded=0;entryX=-0.005;entryY=0.335;entryDx=0;entryDy=0;entryPerimeter=0;endSize=1;endFill=1;strokeWidth=2;" edge="1" parent="1">
          <mxGeometry width="50" height="50" relative="1" as="geometry">
            <mxPoint x="619.8399999999999" y="199" as="sourcePoint" />
            <mxPoint x="641.8599999999999" y="203.66000000000008" as="targetPoint" />
            <Array as="points">
              <mxPoint x="629.8399999999999" y="204" />
            </Array>
          </mxGeometry>
        </mxCell>
        <mxCell id="fjjCcIhR5FJAD0Cf6J86-175" value="" style="endArrow=block;html=1;rounded=0;entryX=-0.005;entryY=0.335;entryDx=0;entryDy=0;entryPerimeter=0;endSize=1;endFill=1;strokeWidth=2;" edge="1" parent="1">
          <mxGeometry width="50" height="50" relative="1" as="geometry">
            <mxPoint x="619.8399999999999" y="199" as="sourcePoint" />
            <mxPoint x="641.8599999999999" y="213.66000000000008" as="targetPoint" />
            <Array as="points">
              <mxPoint x="629.8399999999999" y="214" />
            </Array>
          </mxGeometry>
        </mxCell>
        <mxCell id="fjjCcIhR5FJAD0Cf6J86-176" value="" style="endArrow=block;html=1;rounded=0;entryX=-0.005;entryY=0.335;entryDx=0;entryDy=0;entryPerimeter=0;endSize=1;endFill=1;strokeWidth=2;" edge="1" parent="1">
          <mxGeometry width="50" height="50" relative="1" as="geometry">
            <mxPoint x="619.8399999999999" y="199" as="sourcePoint" />
            <mxPoint x="641.8599999999999" y="223.66000000000008" as="targetPoint" />
            <Array as="points">
              <mxPoint x="629.8399999999999" y="224" />
            </Array>
          </mxGeometry>
        </mxCell>
        <mxCell id="fjjCcIhR5FJAD0Cf6J86-177" value="" style="endArrow=block;html=1;rounded=0;entryX=-0.005;entryY=0.335;entryDx=0;entryDy=0;entryPerimeter=0;endSize=1;endFill=1;strokeWidth=2;" edge="1" parent="1">
          <mxGeometry width="50" height="50" relative="1" as="geometry">
            <mxPoint x="619.8399999999999" y="199" as="sourcePoint" />
            <mxPoint x="641.8599999999999" y="233.66000000000008" as="targetPoint" />
            <Array as="points">
              <mxPoint x="629.8399999999999" y="234" />
            </Array>
          </mxGeometry>
        </mxCell>
        <mxCell id="fjjCcIhR5FJAD0Cf6J86-178" value="" style="endArrow=block;html=1;rounded=0;entryX=-0.005;entryY=0.335;entryDx=0;entryDy=0;entryPerimeter=0;endSize=1;endFill=1;strokeWidth=2;" edge="1" parent="1">
          <mxGeometry width="50" height="50" relative="1" as="geometry">
            <mxPoint x="619.8399999999999" y="199" as="sourcePoint" />
            <mxPoint x="642" y="162.0000000000001" as="targetPoint" />
            <Array as="points">
              <mxPoint x="629.8399999999999" y="162" />
            </Array>
          </mxGeometry>
        </mxCell>
        <mxCell id="fjjCcIhR5FJAD0Cf6J86-179" style="edgeStyle=orthogonalEdgeStyle;rounded=0;orthogonalLoop=1;jettySize=auto;html=1;endSize=1;strokeWidth=2;endArrow=none;endFill=1;startFill=0;exitX=0.5;exitY=1;exitDx=0;exitDy=0;" edge="1" parent="1" source="fjjCcIhR5FJAD0Cf6J86-181">
          <mxGeometry relative="1" as="geometry">
            <mxPoint x="199.88999999999993" y="550.952380952381" as="targetPoint" />
            <mxPoint x="199.88629629629617" y="338" as="sourcePoint" />
          </mxGeometry>
        </mxCell>
        <mxCell id="fjjCcIhR5FJAD0Cf6J86-180" value="" style="group" vertex="1" connectable="0" parent="1">
          <mxGeometry x="174.83999999999986" y="182" width="50.10000000000002" height="28" as="geometry" />
        </mxCell>
        <mxCell id="fjjCcIhR5FJAD0Cf6J86-181" value="&lt;font style=&quot;font-size: 8px;&quot;&gt;$$\text{CntIndx}$$&lt;/font&gt;" style="rounded=0;whiteSpace=wrap;html=1;" vertex="1" parent="fjjCcIhR5FJAD0Cf6J86-180">
          <mxGeometry width="50.1" height="28" as="geometry" />
        </mxCell>
        <mxCell id="fjjCcIhR5FJAD0Cf6J86-182" value="" style="triangle;whiteSpace=wrap;html=1;rotation=-90;" vertex="1" parent="fjjCcIhR5FJAD0Cf6J86-180">
          <mxGeometry x="37.080000000000155" y="15.509999999999991" width="7.95" height="15.57" as="geometry" />
        </mxCell>
        <mxCell id="fjjCcIhR5FJAD0Cf6J86-183" value="&lt;font style=&quot;font-size: 8px;&quot;&gt;$$\text{en}$$&lt;/font&gt;" style="text;html=1;align=center;verticalAlign=middle;whiteSpace=wrap;rounded=0;" vertex="1" parent="fjjCcIhR5FJAD0Cf6J86-180">
          <mxGeometry x="1.1368683772161603e-13" width="10.52" height="7.54" as="geometry" />
        </mxCell>
        <mxCell id="fjjCcIhR5FJAD0Cf6J86-184" value="" style="group" vertex="1" connectable="0" parent="1">
          <mxGeometry x="238.83999999999986" y="139" width="50.10000000000002" height="28" as="geometry" />
        </mxCell>
        <mxCell id="fjjCcIhR5FJAD0Cf6J86-185" value="&lt;font style=&quot;font-size: 8px;&quot;&gt;$$\text{CntR}$$&lt;/font&gt;" style="rounded=0;whiteSpace=wrap;html=1;" vertex="1" parent="fjjCcIhR5FJAD0Cf6J86-184">
          <mxGeometry width="50.1" height="28" as="geometry" />
        </mxCell>
        <mxCell id="fjjCcIhR5FJAD0Cf6J86-186" value="" style="triangle;whiteSpace=wrap;html=1;rotation=-90;" vertex="1" parent="fjjCcIhR5FJAD0Cf6J86-184">
          <mxGeometry x="37.080000000000155" y="15.509999999999991" width="7.95" height="15.57" as="geometry" />
        </mxCell>
        <mxCell id="fjjCcIhR5FJAD0Cf6J86-187" value="&lt;font style=&quot;font-size: 8px;&quot;&gt;$$\text{en}$$&lt;/font&gt;" style="text;html=1;align=center;verticalAlign=middle;whiteSpace=wrap;rounded=0;" vertex="1" parent="fjjCcIhR5FJAD0Cf6J86-184">
          <mxGeometry x="1.1368683772161603e-13" width="10.52" height="7.54" as="geometry" />
        </mxCell>
        <mxCell id="fjjCcIhR5FJAD0Cf6J86-188" value="" style="endArrow=block;html=1;rounded=0;exitX=0.5;exitY=1;exitDx=0;exitDy=0;entryX=0;entryY=0.5;entryDx=0;entryDy=0;endSize=1;endFill=1;strokeWidth=2;" edge="1" parent="1" source="fjjCcIhR5FJAD0Cf6J86-185" target="fjjCcIhR5FJAD0Cf6J86-283">
          <mxGeometry width="50" height="50" relative="1" as="geometry">
            <mxPoint x="286.84" y="310" as="sourcePoint" />
            <mxPoint x="264.20284" y="262.43776" as="targetPoint" />
            <Array as="points">
              <mxPoint x="264" y="180" />
              <mxPoint x="240" y="180" />
              <mxPoint x="240" y="203" />
            </Array>
          </mxGeometry>
        </mxCell>
        <mxCell id="fjjCcIhR5FJAD0Cf6J86-189" value="" style="group" vertex="1" connectable="0" parent="1">
          <mxGeometry x="321.83999999999986" y="140" width="50.10000000000002" height="28" as="geometry" />
        </mxCell>
        <mxCell id="fjjCcIhR5FJAD0Cf6J86-190" value="&lt;font style=&quot;font-size: 8px;&quot;&gt;$$\text{CntRB}$$&lt;/font&gt;" style="rounded=0;whiteSpace=wrap;html=1;" vertex="1" parent="fjjCcIhR5FJAD0Cf6J86-189">
          <mxGeometry width="50.1" height="28" as="geometry" />
        </mxCell>
        <mxCell id="fjjCcIhR5FJAD0Cf6J86-191" value="" style="triangle;whiteSpace=wrap;html=1;rotation=-90;" vertex="1" parent="fjjCcIhR5FJAD0Cf6J86-189">
          <mxGeometry x="37.080000000000155" y="15.509999999999991" width="7.95" height="15.57" as="geometry" />
        </mxCell>
        <mxCell id="fjjCcIhR5FJAD0Cf6J86-192" value="&lt;font style=&quot;font-size: 8px;&quot;&gt;$$\text{en}$$&lt;/font&gt;" style="text;html=1;align=center;verticalAlign=middle;whiteSpace=wrap;rounded=0;" vertex="1" parent="fjjCcIhR5FJAD0Cf6J86-189">
          <mxGeometry x="1.1368683772161603e-13" width="10.52" height="7.54" as="geometry" />
        </mxCell>
        <mxCell id="fjjCcIhR5FJAD0Cf6J86-193" style="edgeStyle=orthogonalEdgeStyle;rounded=0;orthogonalLoop=1;jettySize=auto;html=1;entryX=0.5;entryY=0;entryDx=0;entryDy=0;strokeWidth=2;endArrow=block;endFill=1;endSize=1;exitX=0.525;exitY=0.012;exitDx=0;exitDy=0;exitPerimeter=0;" edge="1" parent="1" source="fjjCcIhR5FJAD0Cf6J86-276" target="fjjCcIhR5FJAD0Cf6J86-100">
          <mxGeometry relative="1" as="geometry">
            <mxPoint x="347" y="290" as="sourcePoint" />
          </mxGeometry>
        </mxCell>
        <mxCell id="fjjCcIhR5FJAD0Cf6J86-194" value="" style="group" vertex="1" connectable="0" parent="1">
          <mxGeometry x="548.8999999999999" y="111" width="50.10000000000002" height="28" as="geometry" />
        </mxCell>
        <mxCell id="fjjCcIhR5FJAD0Cf6J86-195" value="&lt;font style=&quot;font-size: 8px;&quot;&gt;$$\text{CntOut}$$&lt;/font&gt;" style="rounded=0;whiteSpace=wrap;html=1;" vertex="1" parent="fjjCcIhR5FJAD0Cf6J86-194">
          <mxGeometry width="50.1" height="28" as="geometry" />
        </mxCell>
        <mxCell id="fjjCcIhR5FJAD0Cf6J86-196" value="" style="triangle;whiteSpace=wrap;html=1;rotation=-90;" vertex="1" parent="fjjCcIhR5FJAD0Cf6J86-194">
          <mxGeometry x="37.080000000000155" y="15.509999999999991" width="7.95" height="15.57" as="geometry" />
        </mxCell>
        <mxCell id="fjjCcIhR5FJAD0Cf6J86-197" value="&lt;font style=&quot;font-size: 8px;&quot;&gt;$$\text{en}$$&lt;/font&gt;" style="text;html=1;align=center;verticalAlign=middle;whiteSpace=wrap;rounded=0;" vertex="1" parent="fjjCcIhR5FJAD0Cf6J86-194">
          <mxGeometry width="10.52" height="7.54" as="geometry" />
        </mxCell>
        <mxCell id="fjjCcIhR5FJAD0Cf6J86-198" value="&lt;font style=&quot;font-size: 8px;&quot;&gt;$$\text{en}$$&lt;/font&gt;" style="text;html=1;align=center;verticalAlign=middle;whiteSpace=wrap;rounded=0;" vertex="1" parent="1">
          <mxGeometry x="63.670000000000016" y="449.69000000000005" width="10.52" height="7.54" as="geometry" />
        </mxCell>
        <mxCell id="fjjCcIhR5FJAD0Cf6J86-199" style="edgeStyle=orthogonalEdgeStyle;rounded=0;orthogonalLoop=1;jettySize=auto;html=1;entryX=1;entryY=0.25;entryDx=0;entryDy=0;strokeWidth=2;endArrow=block;endFill=1;endSize=1;" edge="1" parent="1" source="fjjCcIhR5FJAD0Cf6J86-195" target="fjjCcIhR5FJAD0Cf6J86-170">
          <mxGeometry relative="1" as="geometry">
            <Array as="points">
              <mxPoint x="650.8399999999999" y="125" />
            </Array>
          </mxGeometry>
        </mxCell>
        <mxCell id="fjjCcIhR5FJAD0Cf6J86-200" value="" style="group" vertex="1" connectable="0" parent="1">
          <mxGeometry x="564.9999999999998" y="79" width="50.10000000000002" height="28" as="geometry" />
        </mxCell>
        <mxCell id="fjjCcIhR5FJAD0Cf6J86-201" style="edgeStyle=orthogonalEdgeStyle;rounded=0;orthogonalLoop=1;jettySize=auto;html=1;strokeWidth=2;endArrow=block;endFill=1;endSize=1;" edge="1" parent="fjjCcIhR5FJAD0Cf6J86-200" source="fjjCcIhR5FJAD0Cf6J86-202">
          <mxGeometry relative="1" as="geometry">
            <mxPoint x="145.00000000000023" y="14" as="targetPoint" />
          </mxGeometry>
        </mxCell>
        <mxCell id="fjjCcIhR5FJAD0Cf6J86-202" value="&lt;font style=&quot;font-size: 8px;&quot;&gt;$$\text{CntAddrB}$$&lt;/font&gt;" style="rounded=0;whiteSpace=wrap;html=1;" vertex="1" parent="fjjCcIhR5FJAD0Cf6J86-200">
          <mxGeometry width="50.1" height="28" as="geometry" />
        </mxCell>
        <mxCell id="fjjCcIhR5FJAD0Cf6J86-203" value="" style="triangle;whiteSpace=wrap;html=1;rotation=-90;" vertex="1" parent="fjjCcIhR5FJAD0Cf6J86-200">
          <mxGeometry x="37.080000000000155" y="15.509999999999991" width="7.95" height="15.57" as="geometry" />
        </mxCell>
        <mxCell id="fjjCcIhR5FJAD0Cf6J86-204" value="&lt;font style=&quot;font-size: 8px;&quot;&gt;$$\text{en}$$&lt;/font&gt;" style="text;html=1;align=center;verticalAlign=middle;whiteSpace=wrap;rounded=0;" vertex="1" parent="fjjCcIhR5FJAD0Cf6J86-200">
          <mxGeometry width="10.52" height="7.54" as="geometry" />
        </mxCell>
        <mxCell id="fjjCcIhR5FJAD0Cf6J86-205" value="" style="endArrow=block;html=1;rounded=0;entryX=1;entryY=0.25;entryDx=0;entryDy=0;strokeWidth=2;endFill=1;endSize=1;" edge="1" parent="1" target="fjjCcIhR5FJAD0Cf6J86-42">
          <mxGeometry width="50" height="50" relative="1" as="geometry">
            <mxPoint x="347" y="180" as="sourcePoint" />
            <mxPoint x="566.8104092904689" y="515.1778275031864" as="targetPoint" />
            <Array as="points">
              <mxPoint x="570" y="180" />
              <mxPoint x="570" y="290" />
            </Array>
          </mxGeometry>
        </mxCell>
        <mxCell id="fjjCcIhR5FJAD0Cf6J86-206" value="" style="endArrow=block;html=1;rounded=0;entryX=-0.005;entryY=0.335;entryDx=0;entryDy=0;entryPerimeter=0;endSize=1;endFill=1;strokeWidth=2;" edge="1" parent="1">
          <mxGeometry width="50" height="50" relative="1" as="geometry">
            <mxPoint x="20" y="542" as="sourcePoint" />
            <mxPoint x="44.99999999999994" y="542" as="targetPoint" />
          </mxGeometry>
        </mxCell>
        <mxCell id="fjjCcIhR5FJAD0Cf6J86-207" value="" style="endArrow=block;html=1;rounded=0;entryX=-0.005;entryY=0.335;entryDx=0;entryDy=0;entryPerimeter=0;endSize=1;endFill=1;strokeWidth=2;" edge="1" parent="1">
          <mxGeometry width="50" height="50" relative="1" as="geometry">
            <mxPoint x="20" y="552" as="sourcePoint" />
            <mxPoint x="44.99999999999994" y="552" as="targetPoint" />
          </mxGeometry>
        </mxCell>
        <mxCell id="fjjCcIhR5FJAD0Cf6J86-208" value="" style="endArrow=block;html=1;rounded=0;entryX=-0.005;entryY=0.335;entryDx=0;entryDy=0;entryPerimeter=0;endSize=1;endFill=1;strokeWidth=2;" edge="1" parent="1">
          <mxGeometry width="50" height="50" relative="1" as="geometry">
            <mxPoint x="20" y="562" as="sourcePoint" />
            <mxPoint x="44.99999999999994" y="562" as="targetPoint" />
          </mxGeometry>
        </mxCell>
        <mxCell id="fjjCcIhR5FJAD0Cf6J86-209" value="" style="endArrow=block;html=1;rounded=0;entryX=-0.005;entryY=0.335;entryDx=0;entryDy=0;entryPerimeter=0;endSize=1;endFill=1;strokeWidth=2;" edge="1" parent="1">
          <mxGeometry width="50" height="50" relative="1" as="geometry">
            <mxPoint x="20" y="572" as="sourcePoint" />
            <mxPoint x="44.99999999999994" y="572" as="targetPoint" />
          </mxGeometry>
        </mxCell>
        <mxCell id="fjjCcIhR5FJAD0Cf6J86-210" value="" style="endArrow=block;html=1;rounded=0;entryX=-0.005;entryY=0.335;entryDx=0;entryDy=0;entryPerimeter=0;endSize=1;endFill=1;strokeWidth=2;" edge="1" parent="1">
          <mxGeometry width="50" height="50" relative="1" as="geometry">
            <mxPoint x="20" y="582" as="sourcePoint" />
            <mxPoint x="44.99999999999994" y="582" as="targetPoint" />
          </mxGeometry>
        </mxCell>
        <mxCell id="fjjCcIhR5FJAD0Cf6J86-211" value="" style="endArrow=block;html=1;rounded=0;entryX=-0.005;entryY=0.335;entryDx=0;entryDy=0;entryPerimeter=0;endSize=1;endFill=1;strokeWidth=2;" edge="1" parent="1">
          <mxGeometry width="50" height="50" relative="1" as="geometry">
            <mxPoint x="20" y="592" as="sourcePoint" />
            <mxPoint x="44.99999999999994" y="592" as="targetPoint" />
          </mxGeometry>
        </mxCell>
        <mxCell id="fjjCcIhR5FJAD0Cf6J86-212" value="" style="endArrow=block;html=1;rounded=0;entryX=-0.005;entryY=0.335;entryDx=0;entryDy=0;entryPerimeter=0;endSize=1;endFill=1;strokeWidth=2;" edge="1" parent="1">
          <mxGeometry width="50" height="50" relative="1" as="geometry">
            <mxPoint x="20" y="602" as="sourcePoint" />
            <mxPoint x="44.99999999999994" y="602" as="targetPoint" />
          </mxGeometry>
        </mxCell>
        <mxCell id="fjjCcIhR5FJAD0Cf6J86-213" value="" style="endArrow=block;html=1;rounded=0;entryX=-0.005;entryY=0.335;entryDx=0;entryDy=0;entryPerimeter=0;endSize=1;endFill=1;strokeWidth=2;" edge="1" parent="1">
          <mxGeometry width="50" height="50" relative="1" as="geometry">
            <mxPoint x="20" y="532" as="sourcePoint" />
            <mxPoint x="44.99999999999994" y="532" as="targetPoint" />
          </mxGeometry>
        </mxCell>
        <mxCell id="fjjCcIhR5FJAD0Cf6J86-214" value="" style="rounded=1;whiteSpace=wrap;html=1;strokeColor=#006EAF;strokeWidth=2;" vertex="1" parent="1">
          <mxGeometry x="110.00000000000007" y="20" width="48" height="140" as="geometry" />
        </mxCell>
        <mxCell id="fjjCcIhR5FJAD0Cf6J86-215" value="" style="endArrow=block;html=1;rounded=0;entryX=-0.005;entryY=0.335;entryDx=0;entryDy=0;entryPerimeter=0;endSize=1;endFill=1;strokeWidth=2;" edge="1" parent="1">
          <mxGeometry width="50" height="50" relative="1" as="geometry">
            <mxPoint x="20" y="612" as="sourcePoint" />
            <mxPoint x="44.99999999999994" y="612" as="targetPoint" />
          </mxGeometry>
        </mxCell>
        <mxCell id="fjjCcIhR5FJAD0Cf6J86-216" value="" style="endArrow=block;html=1;rounded=0;entryX=-0.005;entryY=0.335;entryDx=0;entryDy=0;entryPerimeter=0;endSize=1;endFill=1;strokeWidth=2;" edge="1" parent="1">
          <mxGeometry width="50" height="50" relative="1" as="geometry">
            <mxPoint x="20" y="522" as="sourcePoint" />
            <mxPoint x="44.99999999999994" y="522" as="targetPoint" />
          </mxGeometry>
        </mxCell>
        <mxCell id="fjjCcIhR5FJAD0Cf6J86-217" value="" style="endArrow=block;html=1;rounded=0;exitX=0.999;exitY=0.859;exitDx=0;exitDy=0;entryX=1;entryY=0.5;entryDx=0;entryDy=0;endSize=1;endFill=1;strokeColor=#006EAF;exitPerimeter=0;" edge="1" parent="1" source="fjjCcIhR5FJAD0Cf6J86-214" target="fjjCcIhR5FJAD0Cf6J86-58">
          <mxGeometry width="50" height="50" relative="1" as="geometry">
            <mxPoint x="231.74" y="160.00000000000006" as="sourcePoint" />
            <mxPoint x="234.28999999999974" y="510.8499999999998" as="targetPoint" />
            <Array as="points">
              <mxPoint x="190" y="140" />
              <mxPoint x="232" y="140" />
            </Array>
          </mxGeometry>
        </mxCell>
        <mxCell id="fjjCcIhR5FJAD0Cf6J86-218" value="" style="endArrow=block;html=1;rounded=0;entryX=0.5;entryY=0;entryDx=0;entryDy=0;exitX=1.016;exitY=0.928;exitDx=0;exitDy=0;exitPerimeter=0;endSize=1;endFill=1;strokeColor=#006EAF;" edge="1" parent="1" source="fjjCcIhR5FJAD0Cf6J86-214" target="fjjCcIhR5FJAD0Cf6J86-183">
          <mxGeometry width="50" height="50" relative="1" as="geometry">
            <mxPoint x="60" y="310" as="sourcePoint" />
            <mxPoint x="110" y="260" as="targetPoint" />
            <Array as="points">
              <mxPoint x="160" y="150" />
              <mxPoint x="180" y="150" />
            </Array>
          </mxGeometry>
        </mxCell>
        <mxCell id="fjjCcIhR5FJAD0Cf6J86-219" value="" style="endArrow=block;html=1;rounded=0;exitX=1.008;exitY=0.786;exitDx=0;exitDy=0;exitPerimeter=0;entryX=0.093;entryY=-0.01;entryDx=0;entryDy=0;entryPerimeter=0;strokeColor=#006EAF;endFill=1;endSize=1;" edge="1" parent="1" source="fjjCcIhR5FJAD0Cf6J86-214" target="fjjCcIhR5FJAD0Cf6J86-185">
          <mxGeometry width="50" height="50" relative="1" as="geometry">
            <mxPoint x="250" y="180" as="sourcePoint" />
            <mxPoint x="300" y="130" as="targetPoint" />
            <Array as="points">
              <mxPoint x="243" y="130" />
            </Array>
          </mxGeometry>
        </mxCell>
        <mxCell id="fjjCcIhR5FJAD0Cf6J86-220" value="" style="endArrow=block;html=1;rounded=0;entryX=0.198;entryY=0.367;entryDx=0;entryDy=0;endSize=1;endFill=1;strokeColor=#006EAF;entryPerimeter=0;exitX=1.015;exitY=0.714;exitDx=0;exitDy=0;exitPerimeter=0;" edge="1" parent="1" source="fjjCcIhR5FJAD0Cf6J86-214" target="fjjCcIhR5FJAD0Cf6J86-106">
          <mxGeometry width="50" height="50" relative="1" as="geometry">
            <mxPoint x="150" y="120" as="sourcePoint" />
            <mxPoint x="140" y="250" as="targetPoint" />
            <Array as="points">
              <mxPoint x="230" y="120" />
              <mxPoint x="310" y="120" />
              <mxPoint x="310" y="280" />
            </Array>
          </mxGeometry>
        </mxCell>
        <mxCell id="fjjCcIhR5FJAD0Cf6J86-221" value="" style="endArrow=block;html=1;rounded=0;entryX=0.217;entryY=0.318;entryDx=0;entryDy=0;endSize=1;endFill=1;strokeColor=#006EAF;exitX=1.019;exitY=0.641;exitDx=0;exitDy=0;exitPerimeter=0;entryPerimeter=0;" edge="1" parent="1" source="fjjCcIhR5FJAD0Cf6J86-214" target="fjjCcIhR5FJAD0Cf6J86-60">
          <mxGeometry width="50" height="50" relative="1" as="geometry">
            <mxPoint x="148.76800000000006" y="107.6" as="sourcePoint" />
            <mxPoint x="301.05468999999994" y="407.76579999999996" as="targetPoint" />
            <Array as="points">
              <mxPoint x="230" y="110" />
              <mxPoint x="270" y="110" />
              <mxPoint x="290" y="110" />
              <mxPoint x="300" y="110" />
              <mxPoint x="310" y="110" />
              <mxPoint x="316" y="110" />
              <mxPoint x="316" y="408" />
            </Array>
          </mxGeometry>
        </mxCell>
        <mxCell id="fjjCcIhR5FJAD0Cf6J86-222" value="" style="endArrow=block;html=1;rounded=0;entryX=0.5;entryY=0;entryDx=0;entryDy=0;strokeColor=#006EAF;endSize=1;endFill=1;exitX=1.016;exitY=0.574;exitDx=0;exitDy=0;exitPerimeter=0;" edge="1" parent="1" source="fjjCcIhR5FJAD0Cf6J86-214" target="fjjCcIhR5FJAD0Cf6J86-192">
          <mxGeometry width="50" height="50" relative="1" as="geometry">
            <mxPoint x="149" y="100" as="sourcePoint" />
            <mxPoint x="390" y="90" as="targetPoint" />
            <Array as="points">
              <mxPoint x="327" y="100" />
            </Array>
          </mxGeometry>
        </mxCell>
        <mxCell id="fjjCcIhR5FJAD0Cf6J86-223" value="" style="endArrow=block;html=1;rounded=0;entryX=0.194;entryY=0.366;entryDx=0;entryDy=0;entryPerimeter=0;endSize=1;endFill=1;strokeColor=#006EAF;exitX=1.013;exitY=0.502;exitDx=0;exitDy=0;exitPerimeter=0;" edge="1" parent="1" source="fjjCcIhR5FJAD0Cf6J86-214" target="fjjCcIhR5FJAD0Cf6J86-61">
          <mxGeometry width="50" height="50" relative="1" as="geometry">
            <mxPoint x="150" y="90" as="sourcePoint" />
            <mxPoint x="368.8246937370957" y="407.39400550585003" as="targetPoint" />
            <Array as="points">
              <mxPoint x="387" y="90" />
              <mxPoint x="387" y="407" />
            </Array>
          </mxGeometry>
        </mxCell>
        <mxCell id="fjjCcIhR5FJAD0Cf6J86-224" value="" style="endArrow=block;html=1;rounded=0;exitX=1;exitY=0.433;exitDx=0;exitDy=0;exitPerimeter=0;entryX=0;entryY=0.25;entryDx=0;entryDy=0;endSize=1;endFill=1;strokeColor=#006EAF;" edge="1" parent="1" source="fjjCcIhR5FJAD0Cf6J86-214" target="fjjCcIhR5FJAD0Cf6J86-109">
          <mxGeometry width="50" height="50" relative="1" as="geometry">
            <mxPoint x="440" y="190" as="sourcePoint" />
            <mxPoint x="490" y="140" as="targetPoint" />
            <Array as="points">
              <mxPoint x="480" y="80" />
              <mxPoint x="480" y="373" />
            </Array>
          </mxGeometry>
        </mxCell>
        <mxCell id="fjjCcIhR5FJAD0Cf6J86-225" value="" style="endArrow=block;html=1;rounded=0;exitX=1.003;exitY=0.36;exitDx=0;exitDy=0;exitPerimeter=0;entryX=0.5;entryY=0;entryDx=0;entryDy=0;strokeColor=#006EAF;endSize=1;endFill=1;" edge="1" parent="1" source="fjjCcIhR5FJAD0Cf6J86-214" target="fjjCcIhR5FJAD0Cf6J86-197">
          <mxGeometry width="50" height="50" relative="1" as="geometry">
            <mxPoint x="340" y="80" as="sourcePoint" />
            <mxPoint x="390" y="30" as="targetPoint" />
            <Array as="points">
              <mxPoint x="554" y="70" />
            </Array>
          </mxGeometry>
        </mxCell>
        <mxCell id="fjjCcIhR5FJAD0Cf6J86-226" value="" style="endArrow=block;html=1;rounded=0;entryX=0.5;entryY=0;entryDx=0;entryDy=0;endSize=1;endFill=1;strokeColor=#006EAF;exitX=1.016;exitY=0.288;exitDx=0;exitDy=0;exitPerimeter=0;" edge="1" parent="1" source="fjjCcIhR5FJAD0Cf6J86-214" target="fjjCcIhR5FJAD0Cf6J86-204">
          <mxGeometry width="50" height="50" relative="1" as="geometry">
            <mxPoint x="160" y="60" as="sourcePoint" />
            <mxPoint x="550" y="60" as="targetPoint" />
            <Array as="points">
              <mxPoint x="540" y="60" />
              <mxPoint x="550" y="60" />
              <mxPoint x="570" y="60" />
            </Array>
          </mxGeometry>
        </mxCell>
        <mxCell id="fjjCcIhR5FJAD0Cf6J86-228" value="" style="group" vertex="1" connectable="0" parent="1">
          <mxGeometry x="44.83999999999985" y="182" width="50.10000000000002" height="28" as="geometry" />
        </mxCell>
        <mxCell id="fjjCcIhR5FJAD0Cf6J86-229" value="&lt;font style=&quot;font-size: 8px;&quot;&gt;$$\text{CntAddrA}$$&lt;/font&gt;" style="rounded=0;whiteSpace=wrap;html=1;" vertex="1" parent="fjjCcIhR5FJAD0Cf6J86-228">
          <mxGeometry width="50.1" height="28" as="geometry" />
        </mxCell>
        <mxCell id="fjjCcIhR5FJAD0Cf6J86-230" value="" style="triangle;whiteSpace=wrap;html=1;rotation=-90;" vertex="1" parent="fjjCcIhR5FJAD0Cf6J86-228">
          <mxGeometry x="37.080000000000155" y="15.509999999999991" width="7.95" height="15.57" as="geometry" />
        </mxCell>
        <mxCell id="fjjCcIhR5FJAD0Cf6J86-231" value="&lt;font style=&quot;font-size: 8px;&quot;&gt;$$\text{en}$$&lt;/font&gt;" style="text;html=1;align=center;verticalAlign=middle;whiteSpace=wrap;rounded=0;" vertex="1" parent="fjjCcIhR5FJAD0Cf6J86-228">
          <mxGeometry x="1.1368683772161603e-13" width="10.52" height="7.54" as="geometry" />
        </mxCell>
        <mxCell id="fjjCcIhR5FJAD0Cf6J86-232" value="" style="endArrow=block;html=1;rounded=0;exitX=0.75;exitY=1;exitDx=0;exitDy=0;entryX=0.222;entryY=0;entryDx=0;entryDy=0;entryPerimeter=0;strokeColor=#006EAF;endFill=1;endSize=1;" edge="1" parent="1" source="fjjCcIhR5FJAD0Cf6J86-214" target="fjjCcIhR5FJAD0Cf6J86-5">
          <mxGeometry width="50" height="50" relative="1" as="geometry">
            <mxPoint x="110" y="330" as="sourcePoint" />
            <mxPoint x="160" y="280" as="targetPoint" />
            <Array as="points">
              <mxPoint x="146" y="230" />
              <mxPoint x="70" y="230" />
              <mxPoint x="70" y="300" />
            </Array>
          </mxGeometry>
        </mxCell>
        <mxCell id="fjjCcIhR5FJAD0Cf6J86-233" value="" style="endArrow=block;html=1;rounded=0;exitX=0.25;exitY=1;exitDx=0;exitDy=0;entryX=0.5;entryY=0;entryDx=0;entryDy=0;endFill=1;endSize=1;strokeColor=#006EAF;" edge="1" parent="1" source="fjjCcIhR5FJAD0Cf6J86-214" target="fjjCcIhR5FJAD0Cf6J86-231">
          <mxGeometry width="50" height="50" relative="1" as="geometry">
            <mxPoint x="120" y="250" as="sourcePoint" />
            <mxPoint x="170" y="200" as="targetPoint" />
            <Array as="points">
              <mxPoint x="122" y="170" />
              <mxPoint x="50" y="170" />
            </Array>
          </mxGeometry>
        </mxCell>
        <mxCell id="fjjCcIhR5FJAD0Cf6J86-234" value="" style="endArrow=block;html=1;rounded=0;exitX=0;exitY=0.5;exitDx=0;exitDy=0;endSize=1;endFill=1;strokeWidth=2;" edge="1" parent="1" source="fjjCcIhR5FJAD0Cf6J86-229">
          <mxGeometry width="50" height="50" relative="1" as="geometry">
            <mxPoint x="10" y="280" as="sourcePoint" />
            <mxPoint x="20" y="196" as="targetPoint" />
          </mxGeometry>
        </mxCell>
        <mxCell id="fjjCcIhR5FJAD0Cf6J86-235" value="&lt;font style=&quot;font-size: 8px; color: rgb(0, 110, 175);&quot;&gt;$$\text{CntIndxEn}$$&lt;/font&gt;" style="text;html=1;align=center;verticalAlign=middle;whiteSpace=wrap;rounded=0;" vertex="1" parent="1">
          <mxGeometry x="165.9999999999999" y="137.9999999999999" width="35.52" height="16.44" as="geometry" />
        </mxCell>
        <mxCell id="fjjCcIhR5FJAD0Cf6J86-236" value="&lt;font style=&quot;font-size: 8px; color: rgb(0, 110, 175);&quot;&gt;$$\text{MrgnSrcEn}$$&lt;/font&gt;" style="text;html=1;align=center;verticalAlign=middle;whiteSpace=wrap;rounded=0;" vertex="1" parent="1">
          <mxGeometry x="165.9999999999999" y="127.99999999999989" width="35.52" height="16.44" as="geometry" />
        </mxCell>
        <mxCell id="fjjCcIhR5FJAD0Cf6J86-237" value="&lt;font style=&quot;font-size: 8px; color: rgb(0, 110, 175);&quot;&gt;$$\text{CntREn}$$&lt;/font&gt;" style="text;html=1;align=center;verticalAlign=middle;whiteSpace=wrap;rounded=0;" vertex="1" parent="1">
          <mxGeometry x="159.9999999999999" y="117.99999999999989" width="35.52" height="16.44" as="geometry" />
        </mxCell>
        <mxCell id="fjjCcIhR5FJAD0Cf6J86-238" value="&lt;font style=&quot;font-size: 8px; color: rgb(0, 110, 175);&quot;&gt;$$\text{DecRSrc}$$&lt;/font&gt;" style="text;html=1;align=center;verticalAlign=middle;whiteSpace=wrap;rounded=0;" vertex="1" parent="1">
          <mxGeometry x="161.9999999999999" y="107.99999999999989" width="35.52" height="16.44" as="geometry" />
        </mxCell>
        <mxCell id="fjjCcIhR5FJAD0Cf6J86-239" value="&lt;font style=&quot;font-size: 8px; color: rgb(0, 110, 175);&quot;&gt;$$\text{RSrc}$$&lt;/font&gt;" style="text;html=1;align=center;verticalAlign=middle;whiteSpace=wrap;rounded=0;" vertex="1" parent="1">
          <mxGeometry x="153.9999999999999" y="97.99999999999989" width="35.52" height="16.44" as="geometry" />
        </mxCell>
        <mxCell id="fjjCcIhR5FJAD0Cf6J86-240" value="&lt;font style=&quot;font-size: 8px; color: rgb(0, 110, 175);&quot;&gt;$$\text{CntRBEn}$$&lt;/font&gt;" style="text;html=1;align=center;verticalAlign=middle;whiteSpace=wrap;rounded=0;" vertex="1" parent="1">
          <mxGeometry x="162.9999999999999" y="87.99999999999989" width="35.52" height="16.44" as="geometry" />
        </mxCell>
        <mxCell id="fjjCcIhR5FJAD0Cf6J86-241" value="&lt;font style=&quot;font-size: 8px; color: rgb(0, 110, 175);&quot;&gt;$$\text{RBSrc}$$&lt;/font&gt;" style="text;html=1;align=center;verticalAlign=middle;whiteSpace=wrap;rounded=0;" vertex="1" parent="1">
          <mxGeometry x="156.9999999999999" y="77.99999999999989" width="35.52" height="16.44" as="geometry" />
        </mxCell>
        <mxCell id="fjjCcIhR5FJAD0Cf6J86-242" value="&lt;font style=&quot;font-size: 8px; color: rgb(0, 110, 175);&quot;&gt;$$\text{TrigMTreeSrc}$$&lt;/font&gt;" style="text;html=1;align=center;verticalAlign=middle;whiteSpace=wrap;rounded=0;" vertex="1" parent="1">
          <mxGeometry x="171.9999999999999" y="67.99999999999989" width="35.52" height="16.44" as="geometry" />
        </mxCell>
        <mxCell id="fjjCcIhR5FJAD0Cf6J86-243" value="&lt;font style=&quot;font-size: 8px; color: rgb(0, 110, 175);&quot;&gt;$$\text{CntOutEn}$$&lt;/font&gt;" style="text;html=1;align=center;verticalAlign=middle;whiteSpace=wrap;rounded=0;" vertex="1" parent="1">
          <mxGeometry x="164.9999999999999" y="57.999999999999886" width="35.52" height="16.44" as="geometry" />
        </mxCell>
        <mxCell id="fjjCcIhR5FJAD0Cf6J86-244" value="&lt;font style=&quot;font-size: 8px; color: rgb(0, 110, 175);&quot;&gt;$$\text{CntAddrBEn}$$&lt;/font&gt;" style="text;html=1;align=center;verticalAlign=middle;whiteSpace=wrap;rounded=0;" vertex="1" parent="1">
          <mxGeometry x="170.9999999999999" y="47.999999999999886" width="35.52" height="16.44" as="geometry" />
        </mxCell>
        <mxCell id="fjjCcIhR5FJAD0Cf6J86-245" value="&lt;font style=&quot;font-size: 8px;&quot;&gt;$$\text{RB_0-7}$$&lt;/font&gt;" style="text;html=1;align=center;verticalAlign=middle;whiteSpace=wrap;rounded=0;" vertex="1" parent="1">
          <mxGeometry x="328.1899999999999" y="640.56" width="35.52" height="16.44" as="geometry" />
        </mxCell>
        <mxCell id="fjjCcIhR5FJAD0Cf6J86-246" value="&lt;font style=&quot;font-size: 8px;&quot;&gt;$$\text{MTree_0-7}$$&lt;/font&gt;" style="text;html=1;align=center;verticalAlign=middle;whiteSpace=wrap;rounded=0;" vertex="1" parent="1">
          <mxGeometry x="474.64999999999986" y="640.56" width="35.52" height="16.44" as="geometry" />
        </mxCell>
        <mxCell id="fjjCcIhR5FJAD0Cf6J86-247" value="&lt;font style=&quot;font-size: 8px;&quot;&gt;$$\text{MaxSrc}$$&lt;/font&gt;" style="text;html=1;align=center;verticalAlign=middle;whiteSpace=wrap;rounded=0;rotation=90;" vertex="1" parent="1">
          <mxGeometry x="558.9999999999999" y="557.8299999999999" width="35.52" height="16.44" as="geometry" />
        </mxCell>
        <mxCell id="fjjCcIhR5FJAD0Cf6J86-248" value="&lt;font style=&quot;font-size: 8px;&quot;&gt;$$\text{MrgnPipeline}$$&lt;/font&gt;" style="text;html=1;align=center;verticalAlign=middle;whiteSpace=wrap;rounded=0;" vertex="1" parent="1">
          <mxGeometry x="104.01999999999988" y="640.56" width="35.52" height="16.44" as="geometry" />
        </mxCell>
        <mxCell id="fjjCcIhR5FJAD0Cf6J86-249" value="&lt;font style=&quot;font-size: 8px;&quot;&gt;$$\text{MrgnSrc}$$&lt;/font&gt;" style="text;html=1;align=center;verticalAlign=middle;whiteSpace=wrap;rounded=0;rotation=90;" vertex="1" parent="1">
          <mxGeometry x="213.84999999999988" y="551.24" width="35.52" height="16.44" as="geometry" />
        </mxCell>
        <mxCell id="fjjCcIhR5FJAD0Cf6J86-250" value="&lt;font style=&quot;font-size: 8px;&quot;&gt;$$\text{OutSrc}$$&lt;/font&gt;" style="text;html=1;align=center;verticalAlign=middle;whiteSpace=wrap;rounded=0;rotation=90;" vertex="1" parent="1">
          <mxGeometry x="638.6499999999999" y="190.55999999999995" width="35.52" height="16.44" as="geometry" />
        </mxCell>
        <mxCell id="fjjCcIhR5FJAD0Cf6J86-251" value="&lt;font style=&quot;font-size: 8px; color: rgb(0, 110, 175);&quot;&gt;$$\text{MrgnPipelineEn}$$&lt;/font&gt;" style="text;html=1;align=center;verticalAlign=middle;whiteSpace=wrap;rounded=0;rotation=90;" vertex="1" parent="1">
          <mxGeometry x="134.25999999999988" y="189.1199999999999" width="35.52" height="16.44" as="geometry" />
        </mxCell>
        <mxCell id="fjjCcIhR5FJAD0Cf6J86-252" value="&lt;font style=&quot;font-size: 8px; color: rgb(0, 110, 175);&quot;&gt;$$\text{CntAddrAEn}$$&lt;/font&gt;" style="text;html=1;align=center;verticalAlign=middle;whiteSpace=wrap;rounded=0;rotation=90;" vertex="1" parent="1">
          <mxGeometry x="109.25999999999988" y="185.1199999999999" width="35.52" height="16.44" as="geometry" />
        </mxCell>
        <mxCell id="fjjCcIhR5FJAD0Cf6J86-253" value="&lt;font style=&quot;font-size: 8px;&quot;&gt;$$\text{MTreeSrc}$$&lt;/font&gt;" style="text;html=1;align=center;verticalAlign=middle;whiteSpace=wrap;rounded=0;rotation=0;" vertex="1" parent="1">
          <mxGeometry x="69.49999999999989" y="124.55999999999989" width="35.52" height="16.44" as="geometry" />
        </mxCell>
        <mxCell id="fjjCcIhR5FJAD0Cf6J86-254" value="&lt;font style=&quot;font-size: 8px;&quot;&gt;$$\text{Cntr}$$&lt;/font&gt;" style="text;html=1;align=center;verticalAlign=middle;whiteSpace=wrap;rounded=0;rotation=0;" vertex="1" parent="1">
          <mxGeometry x="116.2399999999999" y="77.99999999999989" width="35.52" height="16.44" as="geometry" />
        </mxCell>
        <mxCell id="fjjCcIhR5FJAD0Cf6J86-255" value="" style="triangle;whiteSpace=wrap;html=1;rotation=-90;strokeColor=#006EAF;" vertex="1" parent="1">
          <mxGeometry x="130.02" y="148.44" width="7.95" height="15.57" as="geometry" />
        </mxCell>
        <mxCell id="fjjCcIhR5FJAD0Cf6J86-256" value="" style="endArrow=block;html=1;rounded=0;endSize=1;endFill=1;" edge="1" parent="1">
          <mxGeometry width="50" height="50" relative="1" as="geometry">
            <mxPoint x="20" y="30" as="sourcePoint" />
            <mxPoint x="109.26" y="30" as="targetPoint" />
          </mxGeometry>
        </mxCell>
        <mxCell id="fjjCcIhR5FJAD0Cf6J86-257" value="" style="endArrow=block;html=1;rounded=0;exitX=1.016;exitY=0.071;exitDx=0;exitDy=0;exitPerimeter=0;endSize=1;endFill=1;strokeColor=#006EAF;" edge="1" parent="1" source="fjjCcIhR5FJAD0Cf6J86-214">
          <mxGeometry width="50" height="50" relative="1" as="geometry">
            <mxPoint x="170" y="30" as="sourcePoint" />
            <mxPoint x="710" y="30" as="targetPoint" />
            <Array as="points">
              <mxPoint x="440" y="30" />
            </Array>
          </mxGeometry>
        </mxCell>
        <mxCell id="fjjCcIhR5FJAD0Cf6J86-258" value="&lt;font style=&quot;font-size: 8px;&quot;&gt;$$\text{Start}$$&lt;/font&gt;" style="text;html=1;align=center;verticalAlign=middle;whiteSpace=wrap;rounded=0;rotation=0;" vertex="1" parent="1">
          <mxGeometry x="78.47999999999989" y="15.99999999999989" width="35.52" height="16.44" as="geometry" />
        </mxCell>
        <mxCell id="fjjCcIhR5FJAD0Cf6J86-259" value="&lt;font style=&quot;font-size: 8px; color: rgb(0, 110, 175);&quot;&gt;$$\text{Ready}$$&lt;/font&gt;" style="text;html=1;align=center;verticalAlign=middle;whiteSpace=wrap;rounded=0;rotation=0;" vertex="1" parent="1">
          <mxGeometry x="156.99999999999991" y="16.99999999999989" width="35.52" height="16.44" as="geometry" />
        </mxCell>
        <mxCell id="fjjCcIhR5FJAD0Cf6J86-111" value="" style="rounded=0;whiteSpace=wrap;html=1;rotation=90;" vertex="1" parent="1">
          <mxGeometry x="428.10999999999996" y="371.895" width="20" height="62.09" as="geometry" />
        </mxCell>
        <mxCell id="fjjCcIhR5FJAD0Cf6J86-112" value="" style="triangle;whiteSpace=wrap;html=1;rotation=0;" vertex="1" parent="1">
          <mxGeometry x="407.0199999999999" y="396.155" width="17.09" height="13.57" as="geometry" />
        </mxCell>
        <mxCell id="fjjCcIhR5FJAD0Cf6J86-276" value="" style="shape=trapezoid;perimeter=trapezoidPerimeter;whiteSpace=wrap;html=1;fixedSize=1;rotation=-180;fillColor=#FFFFFF;strokeWidth=1;flipH=0;flipV=0;direction=east;strokeColor=#FFFF00;" vertex="1" parent="1">
          <mxGeometry x="318.17999999999995" y="262" width="60.87" height="28.44" as="geometry" />
        </mxCell>
        <mxCell id="fjjCcIhR5FJAD0Cf6J86-277" value="" style="endArrow=block;html=1;rounded=0;exitX=0.5;exitY=1;exitDx=0;exitDy=0;entryX=0;entryY=0.5;entryDx=0;entryDy=0;endSize=1;endFill=1;strokeWidth=2;" edge="1" parent="1" source="fjjCcIhR5FJAD0Cf6J86-190" target="fjjCcIhR5FJAD0Cf6J86-270">
          <mxGeometry width="50" height="50" relative="1" as="geometry">
            <mxPoint x="400" y="260" as="sourcePoint" />
            <mxPoint x="450" y="210" as="targetPoint" />
            <Array as="points">
              <mxPoint x="347" y="180" />
              <mxPoint x="320" y="180" />
              <mxPoint x="320" y="203" />
            </Array>
          </mxGeometry>
        </mxCell>
        <mxCell id="fjjCcIhR5FJAD0Cf6J86-279" value="" style="endArrow=block;html=1;rounded=0;exitX=1;exitY=0.5;exitDx=0;exitDy=0;entryX=0;entryY=0.5;entryDx=0;entryDy=0;endSize=1;endFill=1;strokeWidth=2;" edge="1" parent="1" source="fjjCcIhR5FJAD0Cf6J86-270" target="fjjCcIhR5FJAD0Cf6J86-273">
          <mxGeometry width="50" height="50" relative="1" as="geometry">
            <mxPoint x="350" y="230" as="sourcePoint" />
            <mxPoint x="400" y="180" as="targetPoint" />
          </mxGeometry>
        </mxCell>
        <mxCell id="fjjCcIhR5FJAD0Cf6J86-280" value="" style="endArrow=block;html=1;rounded=0;entryX=0.75;entryY=1;entryDx=0;entryDy=0;strokeWidth=2;endSize=1;endFill=1;" edge="1" parent="1" target="fjjCcIhR5FJAD0Cf6J86-276">
          <mxGeometry width="50" height="50" relative="1" as="geometry">
            <mxPoint x="351" y="204" as="sourcePoint" />
            <mxPoint x="334.3974999999999" y="255.99999999999994" as="targetPoint" />
            <Array as="points">
              <mxPoint x="351" y="240" />
              <mxPoint x="333" y="240" />
            </Array>
          </mxGeometry>
        </mxCell>
        <mxCell id="fjjCcIhR5FJAD0Cf6J86-281" value="" style="endArrow=block;html=1;rounded=0;exitX=1;exitY=0.5;exitDx=0;exitDy=0;entryX=0.25;entryY=1;entryDx=0;entryDy=0;endSize=1;endFill=1;strokeWidth=2;" edge="1" parent="1" source="fjjCcIhR5FJAD0Cf6J86-273" target="fjjCcIhR5FJAD0Cf6J86-276">
          <mxGeometry width="50" height="50" relative="1" as="geometry">
            <mxPoint x="390" y="280" as="sourcePoint" />
            <mxPoint x="440" y="230" as="targetPoint" />
            <Array as="points">
              <mxPoint x="380" y="203" />
              <mxPoint x="380" y="240" />
              <mxPoint x="370" y="240" />
              <mxPoint x="364" y="240" />
            </Array>
          </mxGeometry>
        </mxCell>
        <mxCell id="fjjCcIhR5FJAD0Cf6J86-269" value="" style="group;rotation=0;" vertex="1" connectable="0" parent="1">
          <mxGeometry x="318.08" y="182" width="32.22" height="42.1" as="geometry" />
        </mxCell>
        <mxCell id="fjjCcIhR5FJAD0Cf6J86-270" value="" style="rounded=0;whiteSpace=wrap;html=1;rotation=0;strokeColor=#FFFF00;" vertex="1" parent="fjjCcIhR5FJAD0Cf6J86-269">
          <mxGeometry x="10" width="20" height="42.1" as="geometry" />
        </mxCell>
        <mxCell id="fjjCcIhR5FJAD0Cf6J86-271" value="" style="triangle;whiteSpace=wrap;html=1;rotation=-90;strokeColor=#FFFF00;" vertex="1" parent="fjjCcIhR5FJAD0Cf6J86-269">
          <mxGeometry x="11" y="28.868255757770978" width="17.09" height="9.201111290062812" as="geometry" />
        </mxCell>
        <mxCell id="fjjCcIhR5FJAD0Cf6J86-272" value="" style="group;rotation=0;" vertex="1" connectable="0" parent="1">
          <mxGeometry x="349.05" y="182" width="30" height="42.1" as="geometry" />
        </mxCell>
        <mxCell id="fjjCcIhR5FJAD0Cf6J86-273" value="" style="rounded=0;whiteSpace=wrap;html=1;rotation=0;strokeColor=#FFFF00;" vertex="1" parent="fjjCcIhR5FJAD0Cf6J86-272">
          <mxGeometry x="9.31098696461825" width="18.6219739292365" height="42.1" as="geometry" />
        </mxCell>
        <mxCell id="fjjCcIhR5FJAD0Cf6J86-274" value="" style="triangle;whiteSpace=wrap;html=1;rotation=-90;strokeColor=#FFFF00;" vertex="1" parent="fjjCcIhR5FJAD0Cf6J86-272">
          <mxGeometry x="10.662085661080075" y="28.898255757770976" width="15.912476722532588" height="9.201111290062812" as="geometry" />
        </mxCell>
        <mxCell id="fjjCcIhR5FJAD0Cf6J86-282" value="" style="group;rotation=0;" vertex="1" connectable="0" parent="1">
          <mxGeometry x="244" y="182" width="32.22" height="42.1" as="geometry" />
        </mxCell>
        <mxCell id="fjjCcIhR5FJAD0Cf6J86-283" value="" style="rounded=0;whiteSpace=wrap;html=1;rotation=0;strokeColor=#FFFF00;" vertex="1" parent="fjjCcIhR5FJAD0Cf6J86-282">
          <mxGeometry x="10" width="20" height="42.1" as="geometry" />
        </mxCell>
        <mxCell id="fjjCcIhR5FJAD0Cf6J86-284" value="" style="triangle;whiteSpace=wrap;html=1;rotation=-90;strokeColor=#FFFF00;" vertex="1" parent="fjjCcIhR5FJAD0Cf6J86-282">
          <mxGeometry x="11" y="28.868255757770978" width="17.09" height="9.201111290062812" as="geometry" />
        </mxCell>
        <mxCell id="fjjCcIhR5FJAD0Cf6J86-285" value="" style="endArrow=block;html=1;rounded=0;exitX=1;exitY=0.5;exitDx=0;exitDy=0;entryX=0.75;entryY=1;entryDx=0;entryDy=0;endSize=1;endFill=1;strokeWidth=2;" edge="1" parent="1" source="fjjCcIhR5FJAD0Cf6J86-283" target="fjjCcIhR5FJAD0Cf6J86-106">
          <mxGeometry width="50" height="50" relative="1" as="geometry">
            <mxPoint x="260" y="290" as="sourcePoint" />
            <mxPoint x="310" y="240" as="targetPoint" />
            <Array as="points">
              <mxPoint x="280" y="203" />
              <mxPoint x="280" y="240" />
              <mxPoint x="262" y="240" />
            </Array>
          </mxGeometry>
        </mxCell>
        <mxCell id="fjjCcIhR5FJAD0Cf6J86-289" value="" style="endArrow=block;html=1;rounded=0;entryX=1;entryY=0.5;entryDx=0;entryDy=0;exitX=0.151;exitY=-0.001;exitDx=0;exitDy=0;exitPerimeter=0;endFill=1;endSize=1;strokeWidth=2;" edge="1" parent="1" source="fjjCcIhR5FJAD0Cf6J86-57" target="fjjCcIhR5FJAD0Cf6J86-287">
          <mxGeometry width="50" height="50" relative="1" as="geometry">
            <mxPoint x="640" y="450" as="sourcePoint" />
            <mxPoint x="690" y="400" as="targetPoint" />
          </mxGeometry>
        </mxCell>
        <mxCell id="fjjCcIhR5FJAD0Cf6J86-286" value="" style="group;rotation=90;" vertex="1" connectable="0" parent="1">
          <mxGeometry x="605" y="379" width="32.22" height="42.1" as="geometry" />
        </mxCell>
        <mxCell id="fjjCcIhR5FJAD0Cf6J86-287" value="" style="rounded=0;whiteSpace=wrap;html=1;rotation=90;strokeColor=#FFFF00;" vertex="1" parent="fjjCcIhR5FJAD0Cf6J86-286">
          <mxGeometry x="6" y="4" width="20" height="42.1" as="geometry" />
        </mxCell>
        <mxCell id="fjjCcIhR5FJAD0Cf6J86-288" value="" style="triangle;whiteSpace=wrap;html=1;rotation=0;strokeColor=#FFFF00;" vertex="1" parent="fjjCcIhR5FJAD0Cf6J86-286">
          <mxGeometry x="-5" y="20" width="17.09" height="9.201111290062812" as="geometry" />
        </mxCell>
        <mxCell id="fjjCcIhR5FJAD0Cf6J86-293" value="" style="endArrow=block;html=1;rounded=0;exitX=1;exitY=0.75;exitDx=0;exitDy=0;entryX=1;entryY=0.5;entryDx=0;entryDy=0;endSize=1;endFill=1;strokeWidth=2;" edge="1" parent="1" source="fjjCcIhR5FJAD0Cf6J86-57" target="fjjCcIhR5FJAD0Cf6J86-291">
          <mxGeometry width="50" height="50" relative="1" as="geometry">
            <mxPoint x="650" y="700" as="sourcePoint" />
            <mxPoint x="700" y="650" as="targetPoint" />
            <Array as="points">
              <mxPoint x="680" y="599" />
              <mxPoint x="680" y="678" />
            </Array>
          </mxGeometry>
        </mxCell>
        <mxCell id="fjjCcIhR5FJAD0Cf6J86-294" value="" style="endArrow=block;html=1;rounded=0;exitX=1;exitY=0.25;exitDx=0;exitDy=0;entryX=1;entryY=0.75;entryDx=0;entryDy=0;endSize=1;endFill=1;strokeWidth=2;" edge="1" parent="1" source="fjjCcIhR5FJAD0Cf6J86-57" target="fjjCcIhR5FJAD0Cf6J86-291">
          <mxGeometry width="50" height="50" relative="1" as="geometry">
            <mxPoint x="700" y="590" as="sourcePoint" />
            <mxPoint x="750" y="540" as="targetPoint" />
            <Array as="points">
              <mxPoint x="690" y="534" />
              <mxPoint x="690" y="689" />
            </Array>
          </mxGeometry>
        </mxCell>
        <mxCell id="fjjCcIhR5FJAD0Cf6J86-290" value="" style="group;rotation=0;" vertex="1" connectable="0" parent="1">
          <mxGeometry x="625" y="657" width="30" height="42.1" as="geometry" />
        </mxCell>
        <mxCell id="fjjCcIhR5FJAD0Cf6J86-291" value="" style="rounded=0;whiteSpace=wrap;html=1;rotation=0;strokeColor=#FFFF00;" vertex="1" parent="fjjCcIhR5FJAD0Cf6J86-290">
          <mxGeometry x="9.31098696461825" width="18.6219739292365" height="42.1" as="geometry" />
        </mxCell>
        <mxCell id="fjjCcIhR5FJAD0Cf6J86-292" value="" style="triangle;whiteSpace=wrap;html=1;rotation=-90;strokeColor=#FFFF00;" vertex="1" parent="fjjCcIhR5FJAD0Cf6J86-290">
          <mxGeometry x="10.662085661080075" y="28.898255757770976" width="15.912476722532588" height="9.201111290062812" as="geometry" />
        </mxCell>
        <mxCell id="fjjCcIhR5FJAD0Cf6J86-295" value="&lt;font style=&quot;font-size: 8px;&quot;&gt;$$\text{DecRBSrc}$$&lt;/font&gt;" style="text;html=1;align=center;verticalAlign=middle;whiteSpace=wrap;rounded=0;" vertex="1" parent="1">
          <mxGeometry x="327.19999999999993" y="265" width="42.84" height="12.56" as="geometry" />
        </mxCell>
        <mxCell id="fjjCcIhR5FJAD0Cf6J86-297" value="&lt;font style=&quot;font-size: 8px; color: rgb(255, 255, 0);&quot;&gt;$$\text{DecRBSrc}$$&lt;/font&gt;" style="text;html=1;align=center;verticalAlign=middle;whiteSpace=wrap;rounded=0;" vertex="1" parent="1">
          <mxGeometry x="164.7799999999999" y="36.439999999999884" width="35.52" height="16.44" as="geometry" />
        </mxCell>
      </root>
    </mxGraphModel>
  </diagram>
</mxfile>
